<mxfile host="app.diagrams.net" modified="2024-05-15T03:24:27.244Z" agent="Mozilla/5.0 (Windows NT 10.0; Win64; x64; rv:125.0) Gecko/20100101 Firefox/125.0" etag="-EZq3mbSBwHCCPc3M-Qj" version="24.2.3" type="device">
  <diagram id="C5RBs43oDa-KdzZeNtuy" name="Page-1">
    <mxGraphModel dx="3695" dy="1640" grid="1" gridSize="10" guides="1" tooltips="1" connect="1" arrows="1" fold="1" page="1" pageScale="1" pageWidth="827" pageHeight="1169" math="0" shadow="0">
      <root>
        <mxCell id="WIyWlLk6GJQsqaUBKTNV-0" />
        <mxCell id="WIyWlLk6GJQsqaUBKTNV-1" parent="WIyWlLk6GJQsqaUBKTNV-0" />
        <mxCell id="r4iXXmLtCV7hjsTs2Yz--0" value="Árvore de Consulta Inicial (não otimizada) com o &lt;i style=&quot;font-size: 23px;&quot;&gt;parsing&lt;/i&gt; de consulta em ordem natural (da esquerda para direita)" style="text;html=1;align=center;verticalAlign=middle;resizable=0;points=[];autosize=1;strokeColor=none;fillColor=none;fontSize=23;fontStyle=5" vertex="1" parent="WIyWlLk6GJQsqaUBKTNV-1">
          <mxGeometry x="-760" width="1180" height="40" as="geometry" />
        </mxCell>
        <mxCell id="r4iXXmLtCV7hjsTs2Yz--3" value="SELECT A.CPF, A.Nome, B.Nome&lt;br style=&quot;font-size: 22px;&quot;&gt;FROM (A INNER JOIN D&lt;br style=&quot;font-size: 22px;&quot;&gt;ON A.CPF = D.CPF_Supervisor) AS AD&lt;br style=&quot;font-size: 22px;&quot;&gt;INNER JOIN (&lt;br style=&quot;font-size: 22px;&quot;&gt;&lt;span style=&quot;white-space: pre;&quot;&gt;&#x9;(&lt;/span&gt;SELECT * FROM C WHERE C.ValorPagar &amp;gt; 50)&lt;br style=&quot;font-size: 22px;&quot;&gt;AS C INNER JOIN&lt;br style=&quot;font-size: 22px;&quot;&gt;(&lt;br style=&quot;font-size: 22px;&quot;&gt;&lt;span style=&quot;white-space: pre;&quot;&gt;&#x9;&lt;/span&gt;SELECT * FROM B WHERE B.Sexo = &quot;M&quot;&lt;br style=&quot;font-size: 22px;&quot;&gt;) AS B&lt;br style=&quot;font-size: 22px;&quot;&gt;ON B.CPF = C.CPF_Cliente&lt;br style=&quot;font-size: 22px;&quot;&gt;) AS CB&lt;br style=&quot;font-size: 22px;&quot;&gt;ON A.CPF = B.CPF" style="text;whiteSpace=wrap;html=1;fontSize=22;" vertex="1" parent="WIyWlLk6GJQsqaUBKTNV-1">
          <mxGeometry x="-800" y="160" width="730" height="350" as="geometry" />
        </mxCell>
        <mxCell id="r4iXXmLtCV7hjsTs2Yz--16" value="A" style="ellipse;whiteSpace=wrap;html=1;fontSize=26;" vertex="1" parent="WIyWlLk6GJQsqaUBKTNV-1">
          <mxGeometry x="-760" y="1000" width="80" height="80" as="geometry" />
        </mxCell>
        <mxCell id="r4iXXmLtCV7hjsTs2Yz--17" value="B" style="ellipse;whiteSpace=wrap;html=1;fontSize=26;" vertex="1" parent="WIyWlLk6GJQsqaUBKTNV-1">
          <mxGeometry x="-560" y="1000" width="80" height="80" as="geometry" />
        </mxCell>
        <mxCell id="r4iXXmLtCV7hjsTs2Yz--18" value="C" style="ellipse;whiteSpace=wrap;html=1;fontSize=26;" vertex="1" parent="WIyWlLk6GJQsqaUBKTNV-1">
          <mxGeometry x="-400" y="920" width="80" height="80" as="geometry" />
        </mxCell>
        <mxCell id="r4iXXmLtCV7hjsTs2Yz--35" value="D" style="ellipse;whiteSpace=wrap;html=1;fontSize=26;" vertex="1" parent="WIyWlLk6GJQsqaUBKTNV-1">
          <mxGeometry x="-200" y="720" width="80" height="80" as="geometry" />
        </mxCell>
        <mxCell id="r4iXXmLtCV7hjsTs2Yz--68" value="⋈ A.Codigo = B.CodFilme" style="text;html=1;align=center;verticalAlign=middle;resizable=0;points=[];autosize=1;strokeColor=none;fillColor=none;fontSize=16;" vertex="1" parent="WIyWlLk6GJQsqaUBKTNV-1">
          <mxGeometry x="133" y="940" width="210" height="30" as="geometry" />
        </mxCell>
        <mxCell id="r4iXXmLtCV7hjsTs2Yz--69" style="rounded=0;orthogonalLoop=1;jettySize=auto;html=1;exitX=1;exitY=0;exitDx=0;exitDy=0;entryX=0.347;entryY=1.1;entryDx=0;entryDy=0;entryPerimeter=0;endArrow=none;endFill=0;" edge="1" source="r4iXXmLtCV7hjsTs2Yz--72" target="r4iXXmLtCV7hjsTs2Yz--68" parent="WIyWlLk6GJQsqaUBKTNV-1">
          <mxGeometry relative="1" as="geometry">
            <mxPoint x="501.21320343559637" y="588.7867965644036" as="sourcePoint" />
          </mxGeometry>
        </mxCell>
        <mxCell id="r4iXXmLtCV7hjsTs2Yz--70" style="rounded=0;orthogonalLoop=1;jettySize=auto;html=1;exitX=0;exitY=0;exitDx=0;exitDy=0;entryX=0.633;entryY=1.1;entryDx=0;entryDy=0;entryPerimeter=0;endArrow=none;endFill=0;" edge="1" source="r4iXXmLtCV7hjsTs2Yz--73" target="r4iXXmLtCV7hjsTs2Yz--68" parent="WIyWlLk6GJQsqaUBKTNV-1">
          <mxGeometry relative="1" as="geometry">
            <mxPoint x="578.7867965644036" y="588.7867965644036" as="sourcePoint" />
          </mxGeometry>
        </mxCell>
        <mxCell id="r4iXXmLtCV7hjsTs2Yz--71" value="⋈ B.CodAtor = C.Codigo" style="text;html=1;align=center;verticalAlign=middle;resizable=0;points=[];autosize=1;strokeColor=none;fillColor=none;fontSize=16;" vertex="1" parent="WIyWlLk6GJQsqaUBKTNV-1">
          <mxGeometry x="473" y="850" width="200" height="30" as="geometry" />
        </mxCell>
        <mxCell id="r4iXXmLtCV7hjsTs2Yz--72" value="A" style="ellipse;whiteSpace=wrap;html=1;fontSize=26;" vertex="1" parent="WIyWlLk6GJQsqaUBKTNV-1">
          <mxGeometry x="113" y="1000" width="80" height="80" as="geometry" />
        </mxCell>
        <mxCell id="r4iXXmLtCV7hjsTs2Yz--73" value="B" style="ellipse;whiteSpace=wrap;html=1;fontSize=26;" vertex="1" parent="WIyWlLk6GJQsqaUBKTNV-1">
          <mxGeometry x="268" y="1000" width="80" height="80" as="geometry" />
        </mxCell>
        <mxCell id="r4iXXmLtCV7hjsTs2Yz--74" value="D" style="ellipse;whiteSpace=wrap;html=1;fontSize=26;" vertex="1" parent="WIyWlLk6GJQsqaUBKTNV-1">
          <mxGeometry x="635" y="920" width="80" height="80" as="geometry" />
        </mxCell>
        <mxCell id="r4iXXmLtCV7hjsTs2Yz--76" value="" style="endArrow=none;html=1;rounded=0;entryX=0.714;entryY=1.067;entryDx=0;entryDy=0;entryPerimeter=0;exitX=0;exitY=0;exitDx=0;exitDy=0;" edge="1" source="r4iXXmLtCV7hjsTs2Yz--74" target="r4iXXmLtCV7hjsTs2Yz--71" parent="WIyWlLk6GJQsqaUBKTNV-1">
          <mxGeometry width="50" height="50" relative="1" as="geometry">
            <mxPoint x="515" y="940" as="sourcePoint" />
            <mxPoint x="565" y="890" as="targetPoint" />
          </mxGeometry>
        </mxCell>
        <mxCell id="r4iXXmLtCV7hjsTs2Yz--93" value="⋈ A.CPF = B.CPF" style="text;html=1;align=center;verticalAlign=middle;resizable=0;points=[];autosize=1;strokeColor=none;fillColor=none;fontSize=16;" vertex="1" parent="WIyWlLk6GJQsqaUBKTNV-1">
          <mxGeometry x="-700" y="950" width="150" height="30" as="geometry" />
        </mxCell>
        <mxCell id="r4iXXmLtCV7hjsTs2Yz--95" value="" style="endArrow=none;html=1;rounded=0;exitX=1;exitY=0;exitDx=0;exitDy=0;entryX=0.42;entryY=1.04;entryDx=0;entryDy=0;entryPerimeter=0;fontSize=26;" edge="1" parent="WIyWlLk6GJQsqaUBKTNV-1" source="r4iXXmLtCV7hjsTs2Yz--16" target="r4iXXmLtCV7hjsTs2Yz--93">
          <mxGeometry width="50" height="50" relative="1" as="geometry">
            <mxPoint x="-230" y="790" as="sourcePoint" />
            <mxPoint x="-180" y="740" as="targetPoint" />
          </mxGeometry>
        </mxCell>
        <mxCell id="r4iXXmLtCV7hjsTs2Yz--96" value="" style="endArrow=none;html=1;rounded=0;exitX=0;exitY=0;exitDx=0;exitDy=0;entryX=0.637;entryY=1.075;entryDx=0;entryDy=0;entryPerimeter=0;fontSize=26;" edge="1" parent="WIyWlLk6GJQsqaUBKTNV-1" source="r4iXXmLtCV7hjsTs2Yz--17" target="r4iXXmLtCV7hjsTs2Yz--93">
          <mxGeometry width="50" height="50" relative="1" as="geometry">
            <mxPoint x="-682" y="1022" as="sourcePoint" />
            <mxPoint x="-627" y="991" as="targetPoint" />
          </mxGeometry>
        </mxCell>
        <mxCell id="r4iXXmLtCV7hjsTs2Yz--97" value="" style="endArrow=none;html=1;rounded=0;exitX=0.532;exitY=-0.012;exitDx=0;exitDy=0;exitPerimeter=0;" edge="1" parent="WIyWlLk6GJQsqaUBKTNV-1" source="r4iXXmLtCV7hjsTs2Yz--93">
          <mxGeometry width="50" height="50" relative="1" as="geometry">
            <mxPoint x="-682" y="1022" as="sourcePoint" />
            <mxPoint x="-520" y="880" as="targetPoint" />
          </mxGeometry>
        </mxCell>
        <mxCell id="r4iXXmLtCV7hjsTs2Yz--99" value="" style="endArrow=none;html=1;rounded=0;exitX=0;exitY=0;exitDx=0;exitDy=0;" edge="1" parent="WIyWlLk6GJQsqaUBKTNV-1" source="r4iXXmLtCV7hjsTs2Yz--18">
          <mxGeometry width="50" height="50" relative="1" as="geometry">
            <mxPoint x="-610" y="960" as="sourcePoint" />
            <mxPoint x="-480" y="880" as="targetPoint" />
          </mxGeometry>
        </mxCell>
        <mxCell id="r4iXXmLtCV7hjsTs2Yz--100" value="⋈ B.CPF = C.CPF_Cliente" style="text;html=1;align=center;verticalAlign=middle;resizable=0;points=[];autosize=1;strokeColor=none;fillColor=none;fontSize=16;" vertex="1" parent="WIyWlLk6GJQsqaUBKTNV-1">
          <mxGeometry x="-610" y="840" width="210" height="30" as="geometry" />
        </mxCell>
        <mxCell id="r4iXXmLtCV7hjsTs2Yz--101" value="&lt;span lang=&quot;en&quot; class=&quot;BxUVEf ILfuVd&quot;&gt;&lt;span class=&quot;hgKElc&quot;&gt;σ B.Sexo = &quot;M&quot;&lt;b&gt;&lt;br&gt;&lt;/b&gt;&lt;/span&gt;&lt;/span&gt;" style="text;html=1;align=center;verticalAlign=middle;resizable=0;points=[];autosize=1;strokeColor=none;fillColor=none;fontSize=16;" vertex="1" parent="WIyWlLk6GJQsqaUBKTNV-1">
          <mxGeometry x="-510" y="760" width="130" height="30" as="geometry" />
        </mxCell>
        <mxCell id="r4iXXmLtCV7hjsTs2Yz--102" value="" style="endArrow=none;html=1;rounded=0;entryX=0.448;entryY=1.218;entryDx=0;entryDy=0;entryPerimeter=0;" edge="1" parent="WIyWlLk6GJQsqaUBKTNV-1" target="r4iXXmLtCV7hjsTs2Yz--101">
          <mxGeometry width="50" height="50" relative="1" as="geometry">
            <mxPoint x="-505.53" y="840" as="sourcePoint" />
            <mxPoint x="-505.53" y="800" as="targetPoint" />
          </mxGeometry>
        </mxCell>
        <mxCell id="r4iXXmLtCV7hjsTs2Yz--103" value="&lt;span lang=&quot;en&quot; class=&quot;BxUVEf ILfuVd&quot;&gt;&lt;span class=&quot;hgKElc&quot;&gt;σ C.ValorPagar &amp;gt; 50&lt;b&gt;&lt;br&gt;&lt;/b&gt;&lt;/span&gt;&lt;/span&gt;" style="text;html=1;align=center;verticalAlign=middle;resizable=0;points=[];autosize=1;strokeColor=none;fillColor=none;fontSize=16;" vertex="1" parent="WIyWlLk6GJQsqaUBKTNV-1">
          <mxGeometry x="-415" y="680" width="170" height="30" as="geometry" />
        </mxCell>
        <mxCell id="r4iXXmLtCV7hjsTs2Yz--104" value="" style="endArrow=none;html=1;rounded=0;entryX=0.281;entryY=1.112;entryDx=0;entryDy=0;entryPerimeter=0;exitX=0.65;exitY=-0.081;exitDx=0;exitDy=0;exitPerimeter=0;" edge="1" parent="WIyWlLk6GJQsqaUBKTNV-1" source="r4iXXmLtCV7hjsTs2Yz--101" target="r4iXXmLtCV7hjsTs2Yz--103">
          <mxGeometry width="50" height="50" relative="1" as="geometry">
            <mxPoint x="-505.53" y="780" as="sourcePoint" />
            <mxPoint x="-505.53" y="740" as="targetPoint" />
          </mxGeometry>
        </mxCell>
        <mxCell id="r4iXXmLtCV7hjsTs2Yz--105" value="" style="endArrow=none;html=1;rounded=0;exitX=0;exitY=0;exitDx=0;exitDy=0;" edge="1" parent="WIyWlLk6GJQsqaUBKTNV-1" source="r4iXXmLtCV7hjsTs2Yz--35">
          <mxGeometry width="50" height="50" relative="1" as="geometry">
            <mxPoint x="-415" y="768" as="sourcePoint" />
            <mxPoint x="-240" y="640" as="targetPoint" />
          </mxGeometry>
        </mxCell>
        <mxCell id="r4iXXmLtCV7hjsTs2Yz--106" value="" style="endArrow=none;html=1;rounded=0;exitX=0.539;exitY=-0.151;exitDx=0;exitDy=0;exitPerimeter=0;" edge="1" parent="WIyWlLk6GJQsqaUBKTNV-1" source="r4iXXmLtCV7hjsTs2Yz--103">
          <mxGeometry width="50" height="50" relative="1" as="geometry">
            <mxPoint x="-415" y="768" as="sourcePoint" />
            <mxPoint x="-280" y="640" as="targetPoint" />
          </mxGeometry>
        </mxCell>
        <mxCell id="r4iXXmLtCV7hjsTs2Yz--107" value="A.CPF = D.CPF_Supervisor" style="text;html=1;align=center;verticalAlign=middle;resizable=0;points=[];autosize=1;strokeColor=none;fillColor=none;fontSize=16;" vertex="1" parent="WIyWlLk6GJQsqaUBKTNV-1">
          <mxGeometry x="-375" y="610" width="220" height="30" as="geometry" />
        </mxCell>
        <mxCell id="r4iXXmLtCV7hjsTs2Yz--111" value="" style="endArrow=none;html=1;rounded=0;" edge="1" parent="WIyWlLk6GJQsqaUBKTNV-1">
          <mxGeometry width="50" height="50" relative="1" as="geometry">
            <mxPoint x="-265.53" y="608" as="sourcePoint" />
            <mxPoint x="-265.53" y="568" as="targetPoint" />
          </mxGeometry>
        </mxCell>
        <mxCell id="r4iXXmLtCV7hjsTs2Yz--113" value="π A.CPF, A.Nome, B.Nome" style="text;html=1;align=center;verticalAlign=middle;resizable=0;points=[];autosize=1;strokeColor=none;fillColor=none;fontSize=16;" vertex="1" parent="WIyWlLk6GJQsqaUBKTNV-1">
          <mxGeometry x="-375" y="530" width="220" height="30" as="geometry" />
        </mxCell>
        <mxCell id="r4iXXmLtCV7hjsTs2Yz--114" value="C" style="ellipse;whiteSpace=wrap;html=1;fontSize=26;" vertex="1" parent="WIyWlLk6GJQsqaUBKTNV-1">
          <mxGeometry x="473" y="920" width="80" height="80" as="geometry" />
        </mxCell>
        <mxCell id="r4iXXmLtCV7hjsTs2Yz--115" value="&lt;span lang=&quot;en&quot; class=&quot;BxUVEf ILfuVd&quot;&gt;&lt;span class=&quot;hgKElc&quot;&gt;σ A.Genero = &quot;Aventura&quot;&lt;b&gt;&lt;br&gt;&lt;/b&gt;&lt;/span&gt;&lt;/span&gt;" style="text;html=1;align=center;verticalAlign=middle;resizable=0;points=[];autosize=1;strokeColor=none;fillColor=none;fontSize=16;" vertex="1" parent="WIyWlLk6GJQsqaUBKTNV-1">
          <mxGeometry x="189.5" y="850" width="200" height="30" as="geometry" />
        </mxCell>
        <mxCell id="r4iXXmLtCV7hjsTs2Yz--116" style="rounded=0;orthogonalLoop=1;jettySize=auto;html=1;exitX=0.528;exitY=-0.186;exitDx=0;exitDy=0;entryX=0.464;entryY=1.165;entryDx=0;entryDy=0;entryPerimeter=0;endArrow=none;endFill=0;exitPerimeter=0;" edge="1" parent="WIyWlLk6GJQsqaUBKTNV-1" source="r4iXXmLtCV7hjsTs2Yz--68" target="r4iXXmLtCV7hjsTs2Yz--115">
          <mxGeometry relative="1" as="geometry">
            <mxPoint x="290" y="1022" as="sourcePoint" />
            <mxPoint x="273" y="983" as="targetPoint" />
          </mxGeometry>
        </mxCell>
        <mxCell id="r4iXXmLtCV7hjsTs2Yz--117" value="⋈ A.Codigo = D.CodFilme" style="text;html=1;align=center;verticalAlign=middle;resizable=0;points=[];autosize=1;strokeColor=none;fillColor=none;fontSize=16;" vertex="1" parent="WIyWlLk6GJQsqaUBKTNV-1">
          <mxGeometry x="303" y="770" width="210" height="30" as="geometry" />
        </mxCell>
        <mxCell id="r4iXXmLtCV7hjsTs2Yz--119" value="" style="endArrow=none;html=1;rounded=0;entryX=0.425;entryY=1.218;entryDx=0;entryDy=0;entryPerimeter=0;exitX=1;exitY=0;exitDx=0;exitDy=0;" edge="1" parent="WIyWlLk6GJQsqaUBKTNV-1" source="r4iXXmLtCV7hjsTs2Yz--114" target="r4iXXmLtCV7hjsTs2Yz--71">
          <mxGeometry width="50" height="50" relative="1" as="geometry">
            <mxPoint x="657" y="942" as="sourcePoint" />
            <mxPoint x="626" y="892" as="targetPoint" />
          </mxGeometry>
        </mxCell>
        <mxCell id="r4iXXmLtCV7hjsTs2Yz--120" style="rounded=0;orthogonalLoop=1;jettySize=auto;html=1;exitX=0.462;exitY=0.007;exitDx=0;exitDy=0;endArrow=none;endFill=0;exitPerimeter=0;" edge="1" parent="WIyWlLk6GJQsqaUBKTNV-1" source="r4iXXmLtCV7hjsTs2Yz--71">
          <mxGeometry relative="1" as="geometry">
            <mxPoint x="253" y="944" as="sourcePoint" />
            <mxPoint x="433" y="800" as="targetPoint" />
          </mxGeometry>
        </mxCell>
        <mxCell id="r4iXXmLtCV7hjsTs2Yz--121" style="rounded=0;orthogonalLoop=1;jettySize=auto;html=1;exitX=0.548;exitY=-0.063;exitDx=0;exitDy=0;endArrow=none;endFill=0;exitPerimeter=0;" edge="1" parent="WIyWlLk6GJQsqaUBKTNV-1" source="r4iXXmLtCV7hjsTs2Yz--115">
          <mxGeometry relative="1" as="geometry">
            <mxPoint x="575" y="860" as="sourcePoint" />
            <mxPoint x="393" y="803" as="targetPoint" />
          </mxGeometry>
        </mxCell>
        <mxCell id="r4iXXmLtCV7hjsTs2Yz--122" value="&lt;span lang=&quot;en&quot; class=&quot;BxUVEf ILfuVd&quot;&gt;&lt;span class=&quot;hgKElc&quot;&gt;σ D.PrecoDiaria &amp;gt; 10&lt;b&gt;&lt;br&gt;&lt;/b&gt;&lt;/span&gt;&lt;/span&gt;" style="text;html=1;align=center;verticalAlign=middle;resizable=0;points=[];autosize=1;strokeColor=none;fillColor=none;fontSize=16;" vertex="1" parent="WIyWlLk6GJQsqaUBKTNV-1">
          <mxGeometry x="404.5" y="690" width="170" height="30" as="geometry" />
        </mxCell>
        <mxCell id="r4iXXmLtCV7hjsTs2Yz--123" value="π A.Nome, C.Nome" style="text;html=1;align=center;verticalAlign=middle;resizable=0;points=[];autosize=1;strokeColor=none;fillColor=none;fontSize=16;" vertex="1" parent="WIyWlLk6GJQsqaUBKTNV-1">
          <mxGeometry x="409.5" y="610" width="160" height="30" as="geometry" />
        </mxCell>
        <mxCell id="r4iXXmLtCV7hjsTs2Yz--124" style="rounded=0;orthogonalLoop=1;jettySize=auto;html=1;exitX=0.498;exitY=-0.063;exitDx=0;exitDy=0;endArrow=none;endFill=0;exitPerimeter=0;entryX=0.482;entryY=1.095;entryDx=0;entryDy=0;entryPerimeter=0;" edge="1" parent="WIyWlLk6GJQsqaUBKTNV-1" source="r4iXXmLtCV7hjsTs2Yz--117" target="r4iXXmLtCV7hjsTs2Yz--122">
          <mxGeometry relative="1" as="geometry">
            <mxPoint x="575" y="860" as="sourcePoint" />
            <mxPoint x="443" y="810" as="targetPoint" />
          </mxGeometry>
        </mxCell>
        <mxCell id="r4iXXmLtCV7hjsTs2Yz--125" style="rounded=0;orthogonalLoop=1;jettySize=auto;html=1;endArrow=none;endFill=0;entryX=0.534;entryY=1.165;entryDx=0;entryDy=0;entryPerimeter=0;" edge="1" parent="WIyWlLk6GJQsqaUBKTNV-1" target="r4iXXmLtCV7hjsTs2Yz--123">
          <mxGeometry relative="1" as="geometry">
            <mxPoint x="495" y="680" as="sourcePoint" />
            <mxPoint x="496" y="733" as="targetPoint" />
          </mxGeometry>
        </mxCell>
        <mxCell id="r4iXXmLtCV7hjsTs2Yz--127" value="⋈ A.CPF = B.CPF" style="text;html=1;align=center;verticalAlign=middle;resizable=0;points=[];autosize=1;strokeColor=none;fillColor=none;fontSize=16;" vertex="1" parent="WIyWlLk6GJQsqaUBKTNV-1">
          <mxGeometry x="1010" y="940" width="150" height="30" as="geometry" />
        </mxCell>
        <mxCell id="r4iXXmLtCV7hjsTs2Yz--128" style="rounded=0;orthogonalLoop=1;jettySize=auto;html=1;exitX=1;exitY=0;exitDx=0;exitDy=0;entryX=0.347;entryY=1.1;entryDx=0;entryDy=0;entryPerimeter=0;endArrow=none;endFill=0;" edge="1" source="r4iXXmLtCV7hjsTs2Yz--131" target="r4iXXmLtCV7hjsTs2Yz--127" parent="WIyWlLk6GJQsqaUBKTNV-1">
          <mxGeometry relative="1" as="geometry">
            <mxPoint x="1348.2132034355964" y="588.7867965644036" as="sourcePoint" />
          </mxGeometry>
        </mxCell>
        <mxCell id="r4iXXmLtCV7hjsTs2Yz--129" style="rounded=0;orthogonalLoop=1;jettySize=auto;html=1;exitX=0;exitY=0;exitDx=0;exitDy=0;entryX=0.633;entryY=1.1;entryDx=0;entryDy=0;entryPerimeter=0;endArrow=none;endFill=0;" edge="1" source="r4iXXmLtCV7hjsTs2Yz--132" target="r4iXXmLtCV7hjsTs2Yz--127" parent="WIyWlLk6GJQsqaUBKTNV-1">
          <mxGeometry relative="1" as="geometry">
            <mxPoint x="1425.7867965644036" y="588.7867965644036" as="sourcePoint" />
          </mxGeometry>
        </mxCell>
        <mxCell id="r4iXXmLtCV7hjsTs2Yz--130" value="&lt;span lang=&quot;en&quot; class=&quot;BxUVEf ILfuVd&quot;&gt;&lt;span class=&quot;hgKElc&quot;&gt;σ C.ValorPagar &amp;gt; 100&lt;b&gt;&lt;br&gt;&lt;/b&gt;&lt;/span&gt;&lt;/span&gt;" style="text;html=1;align=center;verticalAlign=middle;resizable=0;points=[];autosize=1;strokeColor=none;fillColor=none;fontSize=16;" vertex="1" parent="WIyWlLk6GJQsqaUBKTNV-1">
          <mxGeometry x="1270" y="940" width="180" height="30" as="geometry" />
        </mxCell>
        <mxCell id="r4iXXmLtCV7hjsTs2Yz--131" value="A" style="ellipse;whiteSpace=wrap;html=1;fontSize=26;" vertex="1" parent="WIyWlLk6GJQsqaUBKTNV-1">
          <mxGeometry x="960" y="1000" width="80" height="80" as="geometry" />
        </mxCell>
        <mxCell id="r4iXXmLtCV7hjsTs2Yz--132" value="B" style="ellipse;whiteSpace=wrap;html=1;fontSize=26;" vertex="1" parent="WIyWlLk6GJQsqaUBKTNV-1">
          <mxGeometry x="1115" y="1000" width="80" height="80" as="geometry" />
        </mxCell>
        <mxCell id="r4iXXmLtCV7hjsTs2Yz--133" value="D" style="ellipse;whiteSpace=wrap;html=1;fontSize=26;" vertex="1" parent="WIyWlLk6GJQsqaUBKTNV-1">
          <mxGeometry x="1530" y="1000" width="80" height="80" as="geometry" />
        </mxCell>
        <mxCell id="r4iXXmLtCV7hjsTs2Yz--135" value="C" style="ellipse;whiteSpace=wrap;html=1;fontSize=26;" vertex="1" parent="WIyWlLk6GJQsqaUBKTNV-1">
          <mxGeometry x="1320" y="1000" width="80" height="80" as="geometry" />
        </mxCell>
        <mxCell id="r4iXXmLtCV7hjsTs2Yz--137" style="rounded=0;orthogonalLoop=1;jettySize=auto;html=1;exitX=0.528;exitY=-0.186;exitDx=0;exitDy=0;endArrow=none;endFill=0;exitPerimeter=0;" edge="1" source="r4iXXmLtCV7hjsTs2Yz--127" parent="WIyWlLk6GJQsqaUBKTNV-1">
          <mxGeometry relative="1" as="geometry">
            <mxPoint x="1137" y="1022" as="sourcePoint" />
            <mxPoint x="1240" y="880" as="targetPoint" />
          </mxGeometry>
        </mxCell>
        <mxCell id="r4iXXmLtCV7hjsTs2Yz--143" value="π A.Nome, C.Nome" style="text;html=1;align=center;verticalAlign=middle;resizable=0;points=[];autosize=1;strokeColor=none;fillColor=none;fontSize=16;" vertex="1" parent="WIyWlLk6GJQsqaUBKTNV-1">
          <mxGeometry x="1400" y="610" width="160" height="30" as="geometry" />
        </mxCell>
        <mxCell id="r4iXXmLtCV7hjsTs2Yz--150" style="rounded=0;orthogonalLoop=1;jettySize=auto;html=1;endArrow=none;endFill=0;entryX=0.534;entryY=1.165;entryDx=0;entryDy=0;entryPerimeter=0;" edge="1" parent="WIyWlLk6GJQsqaUBKTNV-1">
          <mxGeometry relative="1" as="geometry">
            <mxPoint x="1360" y="1000" as="sourcePoint" />
            <mxPoint x="1360" y="965" as="targetPoint" />
          </mxGeometry>
        </mxCell>
        <mxCell id="r4iXXmLtCV7hjsTs2Yz--151" style="rounded=0;orthogonalLoop=1;jettySize=auto;html=1;exitX=0.493;exitY=-0.208;exitDx=0;exitDy=0;endArrow=none;endFill=0;exitPerimeter=0;" edge="1" parent="WIyWlLk6GJQsqaUBKTNV-1" source="r4iXXmLtCV7hjsTs2Yz--130">
          <mxGeometry relative="1" as="geometry">
            <mxPoint x="1099" y="944" as="sourcePoint" />
            <mxPoint x="1280" y="880" as="targetPoint" />
          </mxGeometry>
        </mxCell>
        <mxCell id="r4iXXmLtCV7hjsTs2Yz--152" value="⋈ B.CPF = C.CPF_Cliente" style="text;html=1;align=center;verticalAlign=middle;resizable=0;points=[];autosize=1;strokeColor=none;fillColor=none;fontSize=16;" vertex="1" parent="WIyWlLk6GJQsqaUBKTNV-1">
          <mxGeometry x="1150" y="850" width="210" height="30" as="geometry" />
        </mxCell>
        <mxCell id="r4iXXmLtCV7hjsTs2Yz--155" value="&lt;span lang=&quot;en&quot; class=&quot;BxUVEf ILfuVd&quot;&gt;&lt;span class=&quot;hgKElc&quot;&gt;σ &lt;/span&gt;&lt;/span&gt;A.CPF_Supervisor IS NULL" style="text;html=1;align=center;verticalAlign=middle;resizable=0;points=[];autosize=1;strokeColor=none;fillColor=none;fontSize=16;" vertex="1" parent="WIyWlLk6GJQsqaUBKTNV-1">
          <mxGeometry x="1195" y="770" width="240" height="30" as="geometry" />
        </mxCell>
        <mxCell id="r4iXXmLtCV7hjsTs2Yz--156" value="&lt;span lang=&quot;en&quot; class=&quot;BxUVEf ILfuVd&quot;&gt;&lt;span class=&quot;hgKElc&quot;&gt;σ &lt;/span&gt;&lt;/span&gt;A.CPF = C.CPF_Funcionario" style="text;html=1;align=center;verticalAlign=middle;resizable=0;points=[];autosize=1;strokeColor=none;fillColor=none;fontSize=16;" vertex="1" parent="WIyWlLk6GJQsqaUBKTNV-1">
          <mxGeometry x="1280" y="690" width="240" height="30" as="geometry" />
        </mxCell>
        <mxCell id="r4iXXmLtCV7hjsTs2Yz--157" style="rounded=0;orthogonalLoop=1;jettySize=auto;html=1;endArrow=none;endFill=0;exitX=0.494;exitY=-0.083;exitDx=0;exitDy=0;exitPerimeter=0;entryX=0.458;entryY=1.042;entryDx=0;entryDy=0;entryPerimeter=0;" edge="1" parent="WIyWlLk6GJQsqaUBKTNV-1" source="r4iXXmLtCV7hjsTs2Yz--152" target="r4iXXmLtCV7hjsTs2Yz--155">
          <mxGeometry relative="1" as="geometry">
            <mxPoint x="1256.5" y="840" as="sourcePoint" />
            <mxPoint x="1257" y="810" as="targetPoint" />
          </mxGeometry>
        </mxCell>
        <mxCell id="r4iXXmLtCV7hjsTs2Yz--158" style="rounded=0;orthogonalLoop=1;jettySize=auto;html=1;endArrow=none;endFill=0;entryX=0.521;entryY=1.042;entryDx=0;entryDy=0;entryPerimeter=0;exitX=0.604;exitY=0;exitDx=0;exitDy=0;exitPerimeter=0;" edge="1" parent="WIyWlLk6GJQsqaUBKTNV-1" source="r4iXXmLtCV7hjsTs2Yz--155" target="r4iXXmLtCV7hjsTs2Yz--156">
          <mxGeometry relative="1" as="geometry">
            <mxPoint x="1254.37" y="760" as="sourcePoint" />
            <mxPoint x="1254.37" y="725" as="targetPoint" />
          </mxGeometry>
        </mxCell>
        <mxCell id="r4iXXmLtCV7hjsTs2Yz--159" style="rounded=0;orthogonalLoop=1;jettySize=auto;html=1;endArrow=none;endFill=0;entryX=0.508;entryY=1.083;entryDx=0;entryDy=0;entryPerimeter=0;" edge="1" parent="WIyWlLk6GJQsqaUBKTNV-1" target="r4iXXmLtCV7hjsTs2Yz--143">
          <mxGeometry relative="1" as="geometry">
            <mxPoint x="1430" y="690" as="sourcePoint" />
            <mxPoint x="1415" y="731" as="targetPoint" />
          </mxGeometry>
        </mxCell>
        <mxCell id="r4iXXmLtCV7hjsTs2Yz--160" style="rounded=0;orthogonalLoop=1;jettySize=auto;html=1;endArrow=none;endFill=0;entryX=0.534;entryY=1.165;entryDx=0;entryDy=0;entryPerimeter=0;" edge="1" parent="WIyWlLk6GJQsqaUBKTNV-1">
          <mxGeometry relative="1" as="geometry">
            <mxPoint x="1569.38" y="1000" as="sourcePoint" />
            <mxPoint x="1569.38" y="965" as="targetPoint" />
          </mxGeometry>
        </mxCell>
        <mxCell id="r4iXXmLtCV7hjsTs2Yz--161" value="&lt;span lang=&quot;en&quot; class=&quot;BxUVEf ILfuVd&quot;&gt;&lt;span class=&quot;hgKElc&quot;&gt;σ D.Valor &amp;lt; 50&lt;b&gt;&lt;br&gt;&lt;/b&gt;&lt;/span&gt;&lt;/span&gt;" style="text;html=1;align=center;verticalAlign=middle;resizable=0;points=[];autosize=1;strokeColor=none;fillColor=none;fontSize=16;" vertex="1" parent="WIyWlLk6GJQsqaUBKTNV-1">
          <mxGeometry x="1499" y="930" width="130" height="30" as="geometry" />
        </mxCell>
        <mxCell id="r4iXXmLtCV7hjsTs2Yz--162" value="&lt;span style=&quot;font-family: inherit; font-size: 23px;&quot;&gt;Árvore de consulta inicial (não otimizada) com o &lt;em style=&quot;font-size: 23px;&quot;&gt;parsing &lt;/em&gt;da consulta&lt;/span&gt;&lt;span style=&quot;font-family: inherit; font-size: 23px;&quot;&gt; em ordem reversa (da direita para a esquerda)&lt;/span&gt;" style="text;html=1;align=center;verticalAlign=middle;resizable=0;points=[];autosize=1;strokeColor=none;fillColor=none;fontSize=23;fontStyle=5" vertex="1" parent="WIyWlLk6GJQsqaUBKTNV-1">
          <mxGeometry x="-762" y="1200" width="1200" height="40" as="geometry" />
        </mxCell>
        <mxCell id="r4iXXmLtCV7hjsTs2Yz--163" value="SELECT A.CPF, A.Nome, B.Nome&lt;br&gt;&lt;div&gt;FROM&lt;/div&gt;&lt;div&gt;&lt;span style=&quot;white-space: pre;&quot;&gt;&#x9;&lt;/span&gt;((A INNER JOIN B ON A.CPF = B.CPF) AS AB&lt;/div&gt;INNER JOIN D ON A.CPF = D.CPF_Supervisor) AS ABD&lt;br&gt;INNER JOIN C ON B.CPF = C.CPF_Cliente&lt;br&gt;&lt;div&gt;WHERE&lt;/div&gt;&lt;div&gt;&lt;span style=&quot;white-space: pre;&quot;&gt;&#x9;&lt;/span&gt;C.ValorPagar &amp;gt; 50&lt;/div&gt;&lt;div&gt;AND&lt;/div&gt;&lt;div&gt;&lt;span style=&quot;white-space: pre;&quot;&gt;&#x9;&lt;/span&gt;B.Sexo = &quot;M&quot;&lt;/div&gt;&lt;div&gt;&lt;br&gt;&lt;/div&gt;" style="text;whiteSpace=wrap;html=1;fontSize=24;" vertex="1" parent="WIyWlLk6GJQsqaUBKTNV-1">
          <mxGeometry x="-800" y="1350" width="707" height="280" as="geometry" />
        </mxCell>
        <mxCell id="r4iXXmLtCV7hjsTs2Yz--168" value="&lt;br&gt;SELECT A.Nome, C.Nome&lt;br&gt;&lt;div&gt;FROM&lt;/div&gt;&lt;div&gt;&lt;span style=&quot;white-space: pre;&quot;&gt;&#x9;&lt;/span&gt;((A INNER JOIN D ON A.Codigo = D.CodFilme) AS AD&lt;/div&gt;INNER JOIN B ON A.Codigo = B.CodFilme) AS ABD&lt;br&gt;INNER JOIN C ON B.CodAtor = C.Codigo&lt;br&gt;&lt;div&gt;WHERE&lt;/div&gt;&lt;div&gt;&lt;span style=&quot;white-space: pre;&quot;&gt;&#x9;&lt;/span&gt;D.PrecoDiaria &amp;gt; 10&lt;/div&gt;&lt;div&gt;AND&lt;/div&gt;&lt;div&gt;&lt;span style=&quot;white-space: pre;&quot;&gt;&#x9;&lt;/span&gt;A.Genero = &quot;Aventura&quot;&lt;/div&gt;&lt;div&gt;&lt;br&gt;&lt;/div&gt;" style="text;whiteSpace=wrap;html=1;fontSize=22;" vertex="1" parent="WIyWlLk6GJQsqaUBKTNV-1">
          <mxGeometry x="36.25" y="1321" width="693.5" height="279" as="geometry" />
        </mxCell>
        <mxCell id="r4iXXmLtCV7hjsTs2Yz--169" value="⋈ A.Codigo = B.CodFilme" style="text;html=1;align=center;verticalAlign=middle;resizable=0;points=[];autosize=1;strokeColor=none;fillColor=none;fontSize=16;" vertex="1" parent="WIyWlLk6GJQsqaUBKTNV-1">
          <mxGeometry x="280.75" y="1840" width="210" height="30" as="geometry" />
        </mxCell>
        <mxCell id="r4iXXmLtCV7hjsTs2Yz--172" value="⋈ B.CodAtor = C.Codigo" style="text;html=1;align=center;verticalAlign=middle;resizable=0;points=[];autosize=1;strokeColor=none;fillColor=none;fontSize=16;" vertex="1" parent="WIyWlLk6GJQsqaUBKTNV-1">
          <mxGeometry x="464.25" y="1969" width="200" height="30" as="geometry" />
        </mxCell>
        <mxCell id="r4iXXmLtCV7hjsTs2Yz--173" value="A" style="ellipse;whiteSpace=wrap;html=1;fontSize=26;" vertex="1" parent="WIyWlLk6GJQsqaUBKTNV-1">
          <mxGeometry x="80.75" y="2070" width="80" height="80" as="geometry" />
        </mxCell>
        <mxCell id="r4iXXmLtCV7hjsTs2Yz--175" value="D" style="ellipse;whiteSpace=wrap;html=1;fontSize=26;" vertex="1" parent="WIyWlLk6GJQsqaUBKTNV-1">
          <mxGeometry x="240.75" y="2150" width="80" height="80" as="geometry" />
        </mxCell>
        <mxCell id="r4iXXmLtCV7hjsTs2Yz--192" value="C" style="ellipse;whiteSpace=wrap;html=1;fontSize=26;" vertex="1" parent="WIyWlLk6GJQsqaUBKTNV-1">
          <mxGeometry x="605.25" y="2029" width="80" height="80" as="geometry" />
        </mxCell>
        <mxCell id="r4iXXmLtCV7hjsTs2Yz--193" value="&lt;span lang=&quot;en&quot; class=&quot;BxUVEf ILfuVd&quot;&gt;&lt;span class=&quot;hgKElc&quot;&gt;σ A.Genero = &quot;Aventura&quot;&lt;b&gt;&lt;br&gt;&lt;/b&gt;&lt;/span&gt;&lt;/span&gt;" style="text;html=1;align=center;verticalAlign=middle;resizable=0;points=[];autosize=1;strokeColor=none;fillColor=none;fontSize=16;" vertex="1" parent="WIyWlLk6GJQsqaUBKTNV-1">
          <mxGeometry x="197.25" y="1920" width="200" height="30" as="geometry" />
        </mxCell>
        <mxCell id="r4iXXmLtCV7hjsTs2Yz--199" value="&lt;span lang=&quot;en&quot; class=&quot;BxUVEf ILfuVd&quot;&gt;&lt;span class=&quot;hgKElc&quot;&gt;σ D.PrecoDiaria &amp;gt; 10&lt;b&gt;&lt;br&gt;&lt;/b&gt;&lt;/span&gt;&lt;/span&gt;" style="text;html=1;align=center;verticalAlign=middle;resizable=0;points=[];autosize=1;strokeColor=none;fillColor=none;fontSize=16;" vertex="1" parent="WIyWlLk6GJQsqaUBKTNV-1">
          <mxGeometry x="195.75" y="2079" width="170" height="30" as="geometry" />
        </mxCell>
        <mxCell id="r4iXXmLtCV7hjsTs2Yz--200" value="π A.Nome, C.Nome" style="text;html=1;align=center;verticalAlign=middle;resizable=0;points=[];autosize=1;strokeColor=none;fillColor=none;fontSize=16;" vertex="1" parent="WIyWlLk6GJQsqaUBKTNV-1">
          <mxGeometry x="303.75" y="1769" width="160" height="30" as="geometry" />
        </mxCell>
        <mxCell id="r4iXXmLtCV7hjsTs2Yz--204" value="⋈ A.CPF = B.CPF" style="text;html=1;align=center;verticalAlign=middle;resizable=0;points=[];autosize=1;strokeColor=none;fillColor=none;fontSize=16;" vertex="1" parent="WIyWlLk6GJQsqaUBKTNV-1">
          <mxGeometry x="1351" y="1760" width="150" height="30" as="geometry" />
        </mxCell>
        <mxCell id="r4iXXmLtCV7hjsTs2Yz--208" value="A" style="ellipse;whiteSpace=wrap;html=1;fontSize=26;" vertex="1" parent="WIyWlLk6GJQsqaUBKTNV-1">
          <mxGeometry x="911" y="2150" width="80" height="80" as="geometry" />
        </mxCell>
        <mxCell id="r4iXXmLtCV7hjsTs2Yz--209" value="B" style="ellipse;whiteSpace=wrap;html=1;fontSize=26;" vertex="1" parent="WIyWlLk6GJQsqaUBKTNV-1">
          <mxGeometry x="1271" y="2111" width="80" height="80" as="geometry" />
        </mxCell>
        <mxCell id="r4iXXmLtCV7hjsTs2Yz--210" value="D" style="ellipse;whiteSpace=wrap;html=1;fontSize=26;" vertex="1" parent="WIyWlLk6GJQsqaUBKTNV-1">
          <mxGeometry x="1521" y="2070" width="80" height="80" as="geometry" />
        </mxCell>
        <mxCell id="r4iXXmLtCV7hjsTs2Yz--211" value="C" style="ellipse;whiteSpace=wrap;html=1;fontSize=26;" vertex="1" parent="WIyWlLk6GJQsqaUBKTNV-1">
          <mxGeometry x="1071" y="2150" width="80" height="80" as="geometry" />
        </mxCell>
        <mxCell id="r4iXXmLtCV7hjsTs2Yz--213" value="π A.Nome, C.Nome" style="text;html=1;align=center;verticalAlign=middle;resizable=0;points=[];autosize=1;strokeColor=none;fillColor=none;fontSize=16;" vertex="1" parent="WIyWlLk6GJQsqaUBKTNV-1">
          <mxGeometry x="1351" y="1680" width="160" height="30" as="geometry" />
        </mxCell>
        <mxCell id="r4iXXmLtCV7hjsTs2Yz--223" value="&lt;span lang=&quot;en&quot; class=&quot;BxUVEf ILfuVd&quot;&gt;&lt;span class=&quot;hgKElc&quot;&gt;σ D.Valor &amp;lt; 50&lt;b&gt;&lt;br&gt;&lt;/b&gt;&lt;/span&gt;&lt;/span&gt;" style="text;html=1;align=center;verticalAlign=middle;resizable=0;points=[];autosize=1;strokeColor=none;fillColor=none;fontSize=16;" vertex="1" parent="WIyWlLk6GJQsqaUBKTNV-1">
          <mxGeometry x="1490" y="2001" width="130" height="30" as="geometry" />
        </mxCell>
        <mxCell id="r4iXXmLtCV7hjsTs2Yz--224" value="Á&lt;span style=&quot;font-family: inherit; font-size: 23px;&quot;&gt;rvore de consulta otimizada&lt;/span&gt;" style="text;html=1;align=center;verticalAlign=middle;resizable=0;points=[];autosize=1;strokeColor=none;fillColor=none;fontSize=23;fontStyle=5" vertex="1" parent="WIyWlLk6GJQsqaUBKTNV-1">
          <mxGeometry x="-792.5" y="2360" width="320" height="40" as="geometry" />
        </mxCell>
        <mxCell id="r4iXXmLtCV7hjsTs2Yz--225" value="1. Junção em Loop Único: percorre arquivo D e pesquisa em&lt;br style=&quot;font-size: 22px;&quot;&gt;&lt;div&gt;índice de A&lt;/div&gt;&lt;div&gt;&lt;br&gt;&lt;/div&gt;&lt;div&gt;2. Pesquisa Linear: atributo não indexado de C&lt;/div&gt;&lt;div&gt;&lt;br&gt;&lt;/div&gt;&lt;div&gt;3. Pesquisa Linear: atributo não indexado de B&lt;/div&gt;&lt;div&gt;&lt;br&gt;&lt;/div&gt;4. Junção em Loop Único: percorre arquivo C e pesquisa em&lt;br style=&quot;font-size: 22px;&quot;&gt;&lt;div&gt;índice de B&lt;/div&gt;&lt;div&gt;&lt;br&gt;&lt;/div&gt;5. Junção de Loop Aninhado: É realizada a varredura em&lt;br style=&quot;font-size: 22px;&quot;&gt;ambos A e B" style="text;whiteSpace=wrap;html=1;fontSize=22;" vertex="1" parent="WIyWlLk6GJQsqaUBKTNV-1">
          <mxGeometry x="-798.5" y="2500" width="757" height="330" as="geometry" />
        </mxCell>
        <mxCell id="r4iXXmLtCV7hjsTs2Yz--226" value="A" style="ellipse;whiteSpace=wrap;html=1;fontSize=26;" vertex="1" parent="WIyWlLk6GJQsqaUBKTNV-1">
          <mxGeometry x="-733.5" y="3160" width="80" height="80" as="geometry" />
        </mxCell>
        <mxCell id="r4iXXmLtCV7hjsTs2Yz--227" value="B" style="ellipse;whiteSpace=wrap;html=1;fontSize=26;" vertex="1" parent="WIyWlLk6GJQsqaUBKTNV-1">
          <mxGeometry x="-213.5" y="3240" width="80" height="80" as="geometry" />
        </mxCell>
        <mxCell id="r4iXXmLtCV7hjsTs2Yz--228" value="C" style="ellipse;whiteSpace=wrap;html=1;fontSize=26;" vertex="1" parent="WIyWlLk6GJQsqaUBKTNV-1">
          <mxGeometry x="-373.5" y="3240" width="80" height="80" as="geometry" />
        </mxCell>
        <mxCell id="r4iXXmLtCV7hjsTs2Yz--229" value="D" style="ellipse;whiteSpace=wrap;html=1;fontSize=26;" vertex="1" parent="WIyWlLk6GJQsqaUBKTNV-1">
          <mxGeometry x="-573.5" y="3160" width="80" height="80" as="geometry" />
        </mxCell>
        <mxCell id="r4iXXmLtCV7hjsTs2Yz--230" value="1. Junção em Loop Único: percorre arquivo B e pesquisa em&lt;br&gt;&lt;div&gt;índice de C&lt;/div&gt;&lt;div&gt;&lt;br&gt;&lt;/div&gt;&lt;div&gt;2. Pesquisa Linear: atributo não indexado de A&lt;/div&gt;&lt;div&gt;&lt;br&gt;&lt;/div&gt;3. Junção em Loop Único: percorre arquivo B e pesquisa em&lt;br&gt;&lt;div&gt;índice de A&lt;/div&gt;&lt;div&gt;&lt;br&gt;&lt;/div&gt;&lt;div&gt;4. Pesquisa Linear: atributo não indexado de D&lt;/div&gt;&lt;div&gt;&lt;br&gt;&lt;/div&gt;5. Junção em Loop Único: percorre arquivo D e pesquisa em&lt;br&gt;índice de A" style="text;whiteSpace=wrap;html=1;fontSize=22;" vertex="1" parent="WIyWlLk6GJQsqaUBKTNV-1">
          <mxGeometry x="14.5" y="2490" width="787" height="330" as="geometry" />
        </mxCell>
        <mxCell id="r4iXXmLtCV7hjsTs2Yz--231" value="⋈ A.Codigo = B.CodFilme" style="text;html=1;align=center;verticalAlign=middle;resizable=0;points=[];autosize=1;strokeColor=none;fillColor=none;fontSize=16;" vertex="1" parent="WIyWlLk6GJQsqaUBKTNV-1">
          <mxGeometry x="220" y="3170" width="210" height="30" as="geometry" />
        </mxCell>
        <mxCell id="r4iXXmLtCV7hjsTs2Yz--235" value="A" style="ellipse;whiteSpace=wrap;html=1;fontSize=26;" vertex="1" parent="WIyWlLk6GJQsqaUBKTNV-1">
          <mxGeometry x="441.5" y="3320" width="80" height="80" as="geometry" />
        </mxCell>
        <mxCell id="r4iXXmLtCV7hjsTs2Yz--236" value="B" style="ellipse;whiteSpace=wrap;html=1;fontSize=26;" vertex="1" parent="WIyWlLk6GJQsqaUBKTNV-1">
          <mxGeometry x="123" y="3320" width="80" height="80" as="geometry" />
        </mxCell>
        <mxCell id="r4iXXmLtCV7hjsTs2Yz--237" value="D" style="ellipse;whiteSpace=wrap;html=1;fontSize=26;" vertex="1" parent="WIyWlLk6GJQsqaUBKTNV-1">
          <mxGeometry x="635" y="3278" width="80" height="80" as="geometry" />
        </mxCell>
        <mxCell id="r4iXXmLtCV7hjsTs2Yz--253" value="π A.CPF, A.Nome, B.Nome" style="text;html=1;align=center;verticalAlign=middle;resizable=0;points=[];autosize=1;strokeColor=none;fillColor=none;fontSize=16;" vertex="1" parent="WIyWlLk6GJQsqaUBKTNV-1">
          <mxGeometry x="-513.5" y="2940" width="220" height="30" as="geometry" />
        </mxCell>
        <mxCell id="r4iXXmLtCV7hjsTs2Yz--254" value="C" style="ellipse;whiteSpace=wrap;html=1;fontSize=26;" vertex="1" parent="WIyWlLk6GJQsqaUBKTNV-1">
          <mxGeometry x="280" y="3320" width="80" height="80" as="geometry" />
        </mxCell>
        <mxCell id="r4iXXmLtCV7hjsTs2Yz--255" value="&lt;span lang=&quot;en&quot; class=&quot;BxUVEf ILfuVd&quot;&gt;&lt;span class=&quot;hgKElc&quot;&gt;σ A.Genero = &quot;Aventura&quot;&lt;b&gt;&lt;br&gt;&lt;/b&gt;&lt;/span&gt;&lt;/span&gt;" style="text;html=1;align=center;verticalAlign=middle;resizable=0;points=[];autosize=1;strokeColor=none;fillColor=none;fontSize=16;" vertex="1" parent="WIyWlLk6GJQsqaUBKTNV-1">
          <mxGeometry x="390" y="3248" width="200" height="30" as="geometry" />
        </mxCell>
        <mxCell id="r4iXXmLtCV7hjsTs2Yz--257" value="⋈ A.Codigo = D.CodFilme" style="text;html=1;align=center;verticalAlign=middle;resizable=0;points=[];autosize=1;strokeColor=none;fillColor=none;fontSize=16;" vertex="1" parent="WIyWlLk6GJQsqaUBKTNV-1">
          <mxGeometry x="404.5" y="3090" width="210" height="30" as="geometry" />
        </mxCell>
        <mxCell id="r4iXXmLtCV7hjsTs2Yz--261" value="&lt;span lang=&quot;en&quot; class=&quot;BxUVEf ILfuVd&quot;&gt;&lt;span class=&quot;hgKElc&quot;&gt;σ D.PrecoDiaria &amp;gt; 10&lt;b&gt;&lt;br&gt;&lt;/b&gt;&lt;/span&gt;&lt;/span&gt;" style="text;html=1;align=center;verticalAlign=middle;resizable=0;points=[];autosize=1;strokeColor=none;fillColor=none;fontSize=16;" vertex="1" parent="WIyWlLk6GJQsqaUBKTNV-1">
          <mxGeometry x="590" y="3210" width="170" height="30" as="geometry" />
        </mxCell>
        <mxCell id="r4iXXmLtCV7hjsTs2Yz--262" value="π A.Nome, C.Nome" style="text;html=1;align=center;verticalAlign=middle;resizable=0;points=[];autosize=1;strokeColor=none;fillColor=none;fontSize=16;" vertex="1" parent="WIyWlLk6GJQsqaUBKTNV-1">
          <mxGeometry x="441.5" y="3010" width="160" height="30" as="geometry" />
        </mxCell>
        <mxCell id="r4iXXmLtCV7hjsTs2Yz--266" value="⋈ A.CPF = B.CPF" style="text;html=1;align=center;verticalAlign=middle;resizable=0;points=[];autosize=1;strokeColor=none;fillColor=none;fontSize=16;" vertex="1" parent="WIyWlLk6GJQsqaUBKTNV-1">
          <mxGeometry x="1290" y="3001" width="150" height="30" as="geometry" />
        </mxCell>
        <mxCell id="r4iXXmLtCV7hjsTs2Yz--269" value="&lt;span lang=&quot;en&quot; class=&quot;BxUVEf ILfuVd&quot;&gt;&lt;span class=&quot;hgKElc&quot;&gt;σ C.ValorPagar &amp;gt; 100&lt;b&gt;&lt;br&gt;&lt;/b&gt;&lt;/span&gt;&lt;/span&gt;" style="text;html=1;align=center;verticalAlign=middle;resizable=0;points=[];autosize=1;strokeColor=none;fillColor=none;fontSize=16;" vertex="1" parent="WIyWlLk6GJQsqaUBKTNV-1">
          <mxGeometry x="1213.5" y="3258" width="180" height="30" as="geometry" />
        </mxCell>
        <mxCell id="r4iXXmLtCV7hjsTs2Yz--270" value="A" style="ellipse;whiteSpace=wrap;html=1;fontSize=26;" vertex="1" parent="WIyWlLk6GJQsqaUBKTNV-1">
          <mxGeometry x="980" y="3279" width="80" height="80" as="geometry" />
        </mxCell>
        <mxCell id="r4iXXmLtCV7hjsTs2Yz--271" value="B" style="ellipse;whiteSpace=wrap;html=1;fontSize=26;" vertex="1" parent="WIyWlLk6GJQsqaUBKTNV-1">
          <mxGeometry x="1500" y="3198" width="80" height="80" as="geometry" />
        </mxCell>
        <mxCell id="r4iXXmLtCV7hjsTs2Yz--273" value="C" style="ellipse;whiteSpace=wrap;html=1;fontSize=26;" vertex="1" parent="WIyWlLk6GJQsqaUBKTNV-1">
          <mxGeometry x="1259" y="3320" width="80" height="80" as="geometry" />
        </mxCell>
        <mxCell id="r4iXXmLtCV7hjsTs2Yz--275" value="π A.Nome, C.Nome" style="text;html=1;align=center;verticalAlign=middle;resizable=0;points=[];autosize=1;strokeColor=none;fillColor=none;fontSize=16;" vertex="1" parent="WIyWlLk6GJQsqaUBKTNV-1">
          <mxGeometry x="1290" y="2921" width="160" height="30" as="geometry" />
        </mxCell>
        <mxCell id="r4iXXmLtCV7hjsTs2Yz--278" value="⋈ C.CPF_Funcionario = C.CPF_Cliente" style="text;html=1;align=center;verticalAlign=middle;resizable=0;points=[];autosize=1;strokeColor=none;fillColor=none;fontSize=16;" vertex="1" parent="WIyWlLk6GJQsqaUBKTNV-1">
          <mxGeometry x="1145" y="3198" width="310" height="30" as="geometry" />
        </mxCell>
        <mxCell id="r4iXXmLtCV7hjsTs2Yz--279" value="&lt;span lang=&quot;en&quot; class=&quot;BxUVEf ILfuVd&quot;&gt;&lt;span class=&quot;hgKElc&quot;&gt;σ &lt;/span&gt;&lt;/span&gt;A.CPF_Supervisor IS NULL" style="text;html=1;align=center;verticalAlign=middle;resizable=0;points=[];autosize=1;strokeColor=none;fillColor=none;fontSize=16;" vertex="1" parent="WIyWlLk6GJQsqaUBKTNV-1">
          <mxGeometry x="900" y="3199" width="240" height="30" as="geometry" />
        </mxCell>
        <mxCell id="r4iXXmLtCV7hjsTs2Yz--280" value="&lt;span lang=&quot;en&quot; class=&quot;BxUVEf ILfuVd&quot;&gt;&lt;span class=&quot;hgKElc&quot;&gt;σ &lt;/span&gt;&lt;/span&gt;A.CPF = C.CPF_Funcionario" style="text;html=1;align=center;verticalAlign=middle;resizable=0;points=[];autosize=1;strokeColor=none;fillColor=none;fontSize=16;" vertex="1" parent="WIyWlLk6GJQsqaUBKTNV-1">
          <mxGeometry x="1021" y="3121" width="240" height="30" as="geometry" />
        </mxCell>
        <mxCell id="r4iXXmLtCV7hjsTs2Yz--286" value="A" style="ellipse;whiteSpace=wrap;html=1;fontSize=26;" vertex="1" parent="WIyWlLk6GJQsqaUBKTNV-1">
          <mxGeometry x="-760" y="2120" width="80" height="80" as="geometry" />
        </mxCell>
        <mxCell id="r4iXXmLtCV7hjsTs2Yz--287" value="B" style="ellipse;whiteSpace=wrap;html=1;fontSize=26;" vertex="1" parent="WIyWlLk6GJQsqaUBKTNV-1">
          <mxGeometry x="-202" y="2120" width="80" height="80" as="geometry" />
        </mxCell>
        <mxCell id="r4iXXmLtCV7hjsTs2Yz--288" value="C" style="ellipse;whiteSpace=wrap;html=1;fontSize=26;" vertex="1" parent="WIyWlLk6GJQsqaUBKTNV-1">
          <mxGeometry x="-362" y="2120" width="80" height="80" as="geometry" />
        </mxCell>
        <mxCell id="r4iXXmLtCV7hjsTs2Yz--289" value="D" style="ellipse;whiteSpace=wrap;html=1;fontSize=26;" vertex="1" parent="WIyWlLk6GJQsqaUBKTNV-1">
          <mxGeometry x="-560" y="2120" width="80" height="80" as="geometry" />
        </mxCell>
        <mxCell id="r4iXXmLtCV7hjsTs2Yz--290" value="⋈ A.CPF = B.CPF" style="text;html=1;align=center;verticalAlign=middle;resizable=0;points=[];autosize=1;strokeColor=none;fillColor=none;fontSize=16;" vertex="1" parent="WIyWlLk6GJQsqaUBKTNV-1">
          <mxGeometry x="-512" y="1880" width="150" height="30" as="geometry" />
        </mxCell>
        <mxCell id="r4iXXmLtCV7hjsTs2Yz--293" value="&lt;span lang=&quot;en&quot; class=&quot;BxUVEf ILfuVd&quot;&gt;&lt;span class=&quot;hgKElc&quot;&gt;σ C.ValorPagar &amp;gt; 50&lt;b&gt;&lt;br&gt;&lt;/b&gt;&lt;/span&gt;&lt;/span&gt;" style="text;html=1;align=center;verticalAlign=middle;resizable=0;points=[];autosize=1;strokeColor=none;fillColor=none;fontSize=16;" vertex="1" parent="WIyWlLk6GJQsqaUBKTNV-1">
          <mxGeometry x="-415" y="2050" width="170" height="30" as="geometry" />
        </mxCell>
        <mxCell id="r4iXXmLtCV7hjsTs2Yz--295" value="π A.CPF, A.Nome, B.Nome" style="text;html=1;align=center;verticalAlign=middle;resizable=0;points=[];autosize=1;strokeColor=none;fillColor=none;fontSize=16;" vertex="1" parent="WIyWlLk6GJQsqaUBKTNV-1">
          <mxGeometry x="-530" y="1810" width="220" height="30" as="geometry" />
        </mxCell>
        <mxCell id="r4iXXmLtCV7hjsTs2Yz--296" value="A.CPF = D.CPF_Supervisor" style="text;html=1;align=center;verticalAlign=middle;resizable=0;points=[];autosize=1;strokeColor=none;fillColor=none;fontSize=16;" vertex="1" parent="WIyWlLk6GJQsqaUBKTNV-1">
          <mxGeometry x="-725" y="2049" width="220" height="30" as="geometry" />
        </mxCell>
        <mxCell id="r4iXXmLtCV7hjsTs2Yz--297" value="" style="endArrow=none;html=1;rounded=0;exitX=1;exitY=0;exitDx=0;exitDy=0;entryX=0.35;entryY=1.158;entryDx=0;entryDy=0;entryPerimeter=0;" edge="1" parent="WIyWlLk6GJQsqaUBKTNV-1" source="r4iXXmLtCV7hjsTs2Yz--286" target="r4iXXmLtCV7hjsTs2Yz--296">
          <mxGeometry width="50" height="50" relative="1" as="geometry">
            <mxPoint x="-20" y="1890" as="sourcePoint" />
            <mxPoint x="30" y="1840" as="targetPoint" />
          </mxGeometry>
        </mxCell>
        <mxCell id="r4iXXmLtCV7hjsTs2Yz--298" value="" style="endArrow=none;html=1;rounded=0;exitX=0;exitY=0;exitDx=0;exitDy=0;entryX=0.592;entryY=1.2;entryDx=0;entryDy=0;entryPerimeter=0;" edge="1" parent="WIyWlLk6GJQsqaUBKTNV-1" source="r4iXXmLtCV7hjsTs2Yz--289" target="r4iXXmLtCV7hjsTs2Yz--296">
          <mxGeometry width="50" height="50" relative="1" as="geometry">
            <mxPoint x="-682" y="2142" as="sourcePoint" />
            <mxPoint x="-627" y="2094" as="targetPoint" />
          </mxGeometry>
        </mxCell>
        <mxCell id="r4iXXmLtCV7hjsTs2Yz--299" value="&lt;span lang=&quot;en&quot; class=&quot;BxUVEf ILfuVd&quot;&gt;&lt;span class=&quot;hgKElc&quot;&gt;σ B.Sexo = &quot;M&quot;&lt;b&gt;&lt;br&gt;&lt;/b&gt;&lt;/span&gt;&lt;/span&gt;" style="text;html=1;align=center;verticalAlign=middle;resizable=0;points=[];autosize=1;strokeColor=none;fillColor=none;fontSize=16;" vertex="1" parent="WIyWlLk6GJQsqaUBKTNV-1">
          <mxGeometry x="-227" y="2050" width="130" height="30" as="geometry" />
        </mxCell>
        <mxCell id="r4iXXmLtCV7hjsTs2Yz--300" style="rounded=0;orthogonalLoop=1;jettySize=auto;html=1;endArrow=none;endFill=0;entryX=0.534;entryY=1.165;entryDx=0;entryDy=0;entryPerimeter=0;" edge="1" parent="WIyWlLk6GJQsqaUBKTNV-1">
          <mxGeometry relative="1" as="geometry">
            <mxPoint x="-162" y="2120" as="sourcePoint" />
            <mxPoint x="-162" y="2085" as="targetPoint" />
          </mxGeometry>
        </mxCell>
        <mxCell id="r4iXXmLtCV7hjsTs2Yz--301" style="rounded=0;orthogonalLoop=1;jettySize=auto;html=1;endArrow=none;endFill=0;entryX=0.534;entryY=1.165;entryDx=0;entryDy=0;entryPerimeter=0;" edge="1" parent="WIyWlLk6GJQsqaUBKTNV-1">
          <mxGeometry relative="1" as="geometry">
            <mxPoint x="-323.25" y="2120" as="sourcePoint" />
            <mxPoint x="-323.25" y="2085" as="targetPoint" />
          </mxGeometry>
        </mxCell>
        <mxCell id="r4iXXmLtCV7hjsTs2Yz--302" style="rounded=0;orthogonalLoop=1;jettySize=auto;html=1;endArrow=none;endFill=0;exitX=0.537;exitY=-0.083;exitDx=0;exitDy=0;exitPerimeter=0;" edge="1" parent="WIyWlLk6GJQsqaUBKTNV-1" source="r4iXXmLtCV7hjsTs2Yz--293">
          <mxGeometry relative="1" as="geometry">
            <mxPoint x="-313.25" y="2130" as="sourcePoint" />
            <mxPoint x="-280" y="2000" as="targetPoint" />
          </mxGeometry>
        </mxCell>
        <mxCell id="r4iXXmLtCV7hjsTs2Yz--303" style="rounded=0;orthogonalLoop=1;jettySize=auto;html=1;endArrow=none;endFill=0;exitX=0.544;exitY=-0.125;exitDx=0;exitDy=0;exitPerimeter=0;" edge="1" parent="WIyWlLk6GJQsqaUBKTNV-1" source="r4iXXmLtCV7hjsTs2Yz--299">
          <mxGeometry relative="1" as="geometry">
            <mxPoint x="-152" y="2130" as="sourcePoint" />
            <mxPoint x="-240" y="2000" as="targetPoint" />
          </mxGeometry>
        </mxCell>
        <mxCell id="r4iXXmLtCV7hjsTs2Yz--304" value="⋈ B.CPF = C.CPF_Cliente" style="text;html=1;align=center;verticalAlign=middle;resizable=0;points=[];autosize=1;strokeColor=none;fillColor=none;fontSize=16;" vertex="1" parent="WIyWlLk6GJQsqaUBKTNV-1">
          <mxGeometry x="-370" y="1970" width="210" height="30" as="geometry" />
        </mxCell>
        <mxCell id="r4iXXmLtCV7hjsTs2Yz--305" value="" style="endArrow=none;html=1;rounded=0;exitX=0.557;exitY=-0.3;exitDx=0;exitDy=0;entryX=0.472;entryY=1.417;entryDx=0;entryDy=0;entryPerimeter=0;exitPerimeter=0;" edge="1" parent="WIyWlLk6GJQsqaUBKTNV-1" source="r4iXXmLtCV7hjsTs2Yz--296" target="r4iXXmLtCV7hjsTs2Yz--290">
          <mxGeometry width="50" height="50" relative="1" as="geometry">
            <mxPoint x="-538" y="2142" as="sourcePoint" />
            <mxPoint x="-585" y="2095" as="targetPoint" />
          </mxGeometry>
        </mxCell>
        <mxCell id="r4iXXmLtCV7hjsTs2Yz--306" value="" style="endArrow=none;html=1;rounded=0;exitX=0.429;exitY=-0.208;exitDx=0;exitDy=0;exitPerimeter=0;" edge="1" parent="WIyWlLk6GJQsqaUBKTNV-1" source="r4iXXmLtCV7hjsTs2Yz--304">
          <mxGeometry width="50" height="50" relative="1" as="geometry">
            <mxPoint x="-592" y="2050" as="sourcePoint" />
            <mxPoint x="-400" y="1920" as="targetPoint" />
          </mxGeometry>
        </mxCell>
        <mxCell id="r4iXXmLtCV7hjsTs2Yz--307" style="rounded=0;orthogonalLoop=1;jettySize=auto;html=1;endArrow=none;endFill=0;entryX=0.534;entryY=1.165;entryDx=0;entryDy=0;entryPerimeter=0;" edge="1" parent="WIyWlLk6GJQsqaUBKTNV-1">
          <mxGeometry relative="1" as="geometry">
            <mxPoint x="-420.63" y="1880" as="sourcePoint" />
            <mxPoint x="-420.63" y="1845" as="targetPoint" />
          </mxGeometry>
        </mxCell>
        <mxCell id="r4iXXmLtCV7hjsTs2Yz--308" value="" style="endArrow=none;html=1;rounded=0;exitX=0.5;exitY=0;exitDx=0;exitDy=0;" edge="1" parent="WIyWlLk6GJQsqaUBKTNV-1" source="r4iXXmLtCV7hjsTs2Yz--175">
          <mxGeometry width="50" height="50" relative="1" as="geometry">
            <mxPoint x="330.75" y="1830" as="sourcePoint" />
            <mxPoint x="280.75" y="2110" as="targetPoint" />
          </mxGeometry>
        </mxCell>
        <mxCell id="r4iXXmLtCV7hjsTs2Yz--309" value="⋈ A.Codigo = D.CodFilme" style="text;html=1;align=center;verticalAlign=middle;resizable=0;points=[];autosize=1;strokeColor=none;fillColor=none;fontSize=16;" vertex="1" parent="WIyWlLk6GJQsqaUBKTNV-1">
          <mxGeometry x="123.75" y="1999" width="210" height="30" as="geometry" />
        </mxCell>
        <mxCell id="r4iXXmLtCV7hjsTs2Yz--310" value="" style="endArrow=none;html=1;rounded=0;exitX=1;exitY=0;exitDx=0;exitDy=0;entryX=0.456;entryY=1.117;entryDx=0;entryDy=0;entryPerimeter=0;" edge="1" parent="WIyWlLk6GJQsqaUBKTNV-1" source="r4iXXmLtCV7hjsTs2Yz--173" target="r4iXXmLtCV7hjsTs2Yz--309">
          <mxGeometry width="50" height="50" relative="1" as="geometry">
            <mxPoint x="290.75" y="2160" as="sourcePoint" />
            <mxPoint x="290.75" y="2120" as="targetPoint" />
          </mxGeometry>
        </mxCell>
        <mxCell id="r4iXXmLtCV7hjsTs2Yz--311" value="" style="endArrow=none;html=1;rounded=0;exitX=0.507;exitY=-0.008;exitDx=0;exitDy=0;entryX=0.551;entryY=1.2;entryDx=0;entryDy=0;entryPerimeter=0;exitPerimeter=0;" edge="1" parent="WIyWlLk6GJQsqaUBKTNV-1" source="r4iXXmLtCV7hjsTs2Yz--199" target="r4iXXmLtCV7hjsTs2Yz--309">
          <mxGeometry width="50" height="50" relative="1" as="geometry">
            <mxPoint x="158.75" y="2092" as="sourcePoint" />
            <mxPoint x="229.75" y="2043" as="targetPoint" />
          </mxGeometry>
        </mxCell>
        <mxCell id="r4iXXmLtCV7hjsTs2Yz--312" value="B" style="ellipse;whiteSpace=wrap;html=1;fontSize=26;" vertex="1" parent="WIyWlLk6GJQsqaUBKTNV-1">
          <mxGeometry x="440.75" y="2029" width="80" height="80" as="geometry" />
        </mxCell>
        <mxCell id="r4iXXmLtCV7hjsTs2Yz--313" value="" style="endArrow=none;html=1;rounded=0;exitX=1;exitY=0;exitDx=0;exitDy=0;entryX=0.481;entryY=1.158;entryDx=0;entryDy=0;entryPerimeter=0;" edge="1" parent="WIyWlLk6GJQsqaUBKTNV-1" source="r4iXXmLtCV7hjsTs2Yz--312" target="r4iXXmLtCV7hjsTs2Yz--172">
          <mxGeometry width="50" height="50" relative="1" as="geometry">
            <mxPoint x="255.25" y="2089" as="sourcePoint" />
            <mxPoint x="213.25" y="2045" as="targetPoint" />
          </mxGeometry>
        </mxCell>
        <mxCell id="r4iXXmLtCV7hjsTs2Yz--314" value="" style="endArrow=none;html=1;rounded=0;exitX=0;exitY=0;exitDx=0;exitDy=0;entryX=0.644;entryY=1.242;entryDx=0;entryDy=0;entryPerimeter=0;" edge="1" parent="WIyWlLk6GJQsqaUBKTNV-1" source="r4iXXmLtCV7hjsTs2Yz--192" target="r4iXXmLtCV7hjsTs2Yz--172">
          <mxGeometry width="50" height="50" relative="1" as="geometry">
            <mxPoint x="255.25" y="2089" as="sourcePoint" />
            <mxPoint x="213.25" y="2045" as="targetPoint" />
          </mxGeometry>
        </mxCell>
        <mxCell id="r4iXXmLtCV7hjsTs2Yz--316" value="" style="endArrow=none;html=1;rounded=0;exitX=0.507;exitY=-0.092;exitDx=0;exitDy=0;exitPerimeter=0;entryX=0.625;entryY=1.125;entryDx=0;entryDy=0;entryPerimeter=0;" edge="1" parent="WIyWlLk6GJQsqaUBKTNV-1" source="r4iXXmLtCV7hjsTs2Yz--172" target="r4iXXmLtCV7hjsTs2Yz--169">
          <mxGeometry width="50" height="50" relative="1" as="geometry">
            <mxPoint x="249.75" y="1999" as="sourcePoint" />
            <mxPoint x="400.75" y="1950" as="targetPoint" />
          </mxGeometry>
        </mxCell>
        <mxCell id="r4iXXmLtCV7hjsTs2Yz--317" value="" style="endArrow=none;html=1;rounded=0;exitX=0.563;exitY=-0.133;exitDx=0;exitDy=0;entryX=0.467;entryY=1.25;entryDx=0;entryDy=0;entryPerimeter=0;exitPerimeter=0;" edge="1" parent="WIyWlLk6GJQsqaUBKTNV-1" source="r4iXXmLtCV7hjsTs2Yz--309" target="r4iXXmLtCV7hjsTs2Yz--193">
          <mxGeometry width="50" height="50" relative="1" as="geometry">
            <mxPoint x="518.75" y="2051" as="sourcePoint" />
            <mxPoint x="570.75" y="2014" as="targetPoint" />
          </mxGeometry>
        </mxCell>
        <mxCell id="r4iXXmLtCV7hjsTs2Yz--318" value="" style="endArrow=none;html=1;rounded=0;exitX=0.58;exitY=-0.125;exitDx=0;exitDy=0;entryX=0.368;entryY=1.125;entryDx=0;entryDy=0;entryPerimeter=0;exitPerimeter=0;" edge="1" parent="WIyWlLk6GJQsqaUBKTNV-1" source="r4iXXmLtCV7hjsTs2Yz--193" target="r4iXXmLtCV7hjsTs2Yz--169">
          <mxGeometry width="50" height="50" relative="1" as="geometry">
            <mxPoint x="251.75" y="2005" as="sourcePoint" />
            <mxPoint x="300.75" y="1968" as="targetPoint" />
          </mxGeometry>
        </mxCell>
        <mxCell id="r4iXXmLtCV7hjsTs2Yz--319" value="" style="endArrow=none;html=1;rounded=0;exitX=0.507;exitY=-0.042;exitDx=0;exitDy=0;exitPerimeter=0;entryX=0.52;entryY=1.158;entryDx=0;entryDy=0;entryPerimeter=0;" edge="1" parent="WIyWlLk6GJQsqaUBKTNV-1" source="r4iXXmLtCV7hjsTs2Yz--169" target="r4iXXmLtCV7hjsTs2Yz--200">
          <mxGeometry width="50" height="50" relative="1" as="geometry">
            <mxPoint x="323.75" y="1926" as="sourcePoint" />
            <mxPoint x="370.75" y="1884" as="targetPoint" />
          </mxGeometry>
        </mxCell>
        <mxCell id="r4iXXmLtCV7hjsTs2Yz--321" value="&lt;span lang=&quot;en&quot; class=&quot;BxUVEf ILfuVd&quot;&gt;&lt;span class=&quot;hgKElc&quot;&gt;σ &lt;/span&gt;&lt;/span&gt;A.CPF = C.CPF_Funcionario" style="text;html=1;align=center;verticalAlign=middle;resizable=0;points=[];autosize=1;strokeColor=none;fillColor=none;fontSize=16;" vertex="1" parent="WIyWlLk6GJQsqaUBKTNV-1">
          <mxGeometry x="911" y="2081" width="240" height="30" as="geometry" />
        </mxCell>
        <mxCell id="r4iXXmLtCV7hjsTs2Yz--322" value="" style="endArrow=none;html=1;rounded=0;exitX=1;exitY=0;exitDx=0;exitDy=0;entryX=0.474;entryY=1.008;entryDx=0;entryDy=0;entryPerimeter=0;" edge="1" parent="WIyWlLk6GJQsqaUBKTNV-1" source="r4iXXmLtCV7hjsTs2Yz--208" target="r4iXXmLtCV7hjsTs2Yz--321">
          <mxGeometry width="50" height="50" relative="1" as="geometry">
            <mxPoint x="1131" y="1840" as="sourcePoint" />
            <mxPoint x="1181" y="1790" as="targetPoint" />
          </mxGeometry>
        </mxCell>
        <mxCell id="r4iXXmLtCV7hjsTs2Yz--323" value="" style="endArrow=none;html=1;rounded=0;exitX=0;exitY=0;exitDx=0;exitDy=0;entryX=0.573;entryY=1.092;entryDx=0;entryDy=0;entryPerimeter=0;" edge="1" parent="WIyWlLk6GJQsqaUBKTNV-1" source="r4iXXmLtCV7hjsTs2Yz--211" target="r4iXXmLtCV7hjsTs2Yz--321">
          <mxGeometry width="50" height="50" relative="1" as="geometry">
            <mxPoint x="989" y="2172" as="sourcePoint" />
            <mxPoint x="1035" y="2121" as="targetPoint" />
          </mxGeometry>
        </mxCell>
        <mxCell id="r4iXXmLtCV7hjsTs2Yz--324" value="&lt;span lang=&quot;en&quot; class=&quot;BxUVEf ILfuVd&quot;&gt;&lt;span class=&quot;hgKElc&quot;&gt;σ &lt;/span&gt;&lt;/span&gt;A.CPF_Supervisor IS NULL" style="text;html=1;align=center;verticalAlign=middle;resizable=0;points=[];autosize=1;strokeColor=none;fillColor=none;fontSize=16;" vertex="1" parent="WIyWlLk6GJQsqaUBKTNV-1">
          <mxGeometry x="992" y="2001" width="240" height="30" as="geometry" />
        </mxCell>
        <mxCell id="r4iXXmLtCV7hjsTs2Yz--326" value="" style="endArrow=none;html=1;rounded=0;exitX=0.516;exitY=-0.158;exitDx=0;exitDy=0;entryX=0.501;entryY=1.133;entryDx=0;entryDy=0;entryPerimeter=0;exitPerimeter=0;" edge="1" parent="WIyWlLk6GJQsqaUBKTNV-1" source="r4iXXmLtCV7hjsTs2Yz--321" target="r4iXXmLtCV7hjsTs2Yz--324">
          <mxGeometry width="50" height="50" relative="1" as="geometry">
            <mxPoint x="1093" y="2172" as="sourcePoint" />
            <mxPoint x="1059" y="2124" as="targetPoint" />
          </mxGeometry>
        </mxCell>
        <mxCell id="r4iXXmLtCV7hjsTs2Yz--327" value="⋈ B.CPF = C.CPF_Cliente" style="text;html=1;align=center;verticalAlign=middle;resizable=0;points=[];autosize=1;strokeColor=none;fillColor=none;fontSize=16;" vertex="1" parent="WIyWlLk6GJQsqaUBKTNV-1">
          <mxGeometry x="1127" y="1920" width="210" height="30" as="geometry" />
        </mxCell>
        <mxCell id="r4iXXmLtCV7hjsTs2Yz--328" value="" style="endArrow=none;html=1;rounded=0;exitX=0;exitY=0;exitDx=0;exitDy=0;entryX=0.686;entryY=1.333;entryDx=0;entryDy=0;entryPerimeter=0;" edge="1" parent="WIyWlLk6GJQsqaUBKTNV-1" source="r4iXXmLtCV7hjsTs2Yz--209" target="r4iXXmLtCV7hjsTs2Yz--327">
          <mxGeometry width="50" height="50" relative="1" as="geometry">
            <mxPoint x="1093" y="2172" as="sourcePoint" />
            <mxPoint x="1059" y="2124" as="targetPoint" />
          </mxGeometry>
        </mxCell>
        <mxCell id="r4iXXmLtCV7hjsTs2Yz--329" value="" style="endArrow=none;html=1;rounded=0;exitX=0.527;exitY=-0.117;exitDx=0;exitDy=0;entryX=0.471;entryY=1.375;entryDx=0;entryDy=0;entryPerimeter=0;exitPerimeter=0;" edge="1" parent="WIyWlLk6GJQsqaUBKTNV-1" source="r4iXXmLtCV7hjsTs2Yz--324" target="r4iXXmLtCV7hjsTs2Yz--327">
          <mxGeometry width="50" height="50" relative="1" as="geometry">
            <mxPoint x="1293" y="2133" as="sourcePoint" />
            <mxPoint x="1281" y="1970" as="targetPoint" />
          </mxGeometry>
        </mxCell>
        <mxCell id="r4iXXmLtCV7hjsTs2Yz--330" value="&lt;span lang=&quot;en&quot; class=&quot;BxUVEf ILfuVd&quot;&gt;&lt;span class=&quot;hgKElc&quot;&gt;σ C.ValorPagar &amp;gt; 100&lt;b&gt;&lt;br&gt;&lt;/b&gt;&lt;/span&gt;&lt;/span&gt;" style="text;html=1;align=center;verticalAlign=middle;resizable=0;points=[];autosize=1;strokeColor=none;fillColor=none;fontSize=16;" vertex="1" parent="WIyWlLk6GJQsqaUBKTNV-1">
          <mxGeometry x="1232" y="1840" width="180" height="30" as="geometry" />
        </mxCell>
        <mxCell id="r4iXXmLtCV7hjsTs2Yz--331" value="" style="endArrow=none;html=1;rounded=0;entryX=0.481;entryY=1.125;entryDx=0;entryDy=0;entryPerimeter=0;" edge="1" parent="WIyWlLk6GJQsqaUBKTNV-1" target="r4iXXmLtCV7hjsTs2Yz--330">
          <mxGeometry width="50" height="50" relative="1" as="geometry">
            <mxPoint x="1251" y="1920" as="sourcePoint" />
            <mxPoint x="1281" y="1970" as="targetPoint" />
          </mxGeometry>
        </mxCell>
        <mxCell id="r4iXXmLtCV7hjsTs2Yz--332" value="" style="endArrow=none;html=1;rounded=0;exitX=0.5;exitY=0;exitDx=0;exitDy=0;entryX=0.546;entryY=1.3;entryDx=0;entryDy=0;entryPerimeter=0;" edge="1" parent="WIyWlLk6GJQsqaUBKTNV-1" source="r4iXXmLtCV7hjsTs2Yz--210" target="r4iXXmLtCV7hjsTs2Yz--223">
          <mxGeometry width="50" height="50" relative="1" as="geometry">
            <mxPoint x="1261" y="1930" as="sourcePoint" />
            <mxPoint x="1561" y="2050" as="targetPoint" />
          </mxGeometry>
        </mxCell>
        <mxCell id="r4iXXmLtCV7hjsTs2Yz--333" value="" style="endArrow=none;html=1;rounded=0;entryX=0.45;entryY=1.25;entryDx=0;entryDy=0;entryPerimeter=0;exitX=0.578;exitY=-0.125;exitDx=0;exitDy=0;exitPerimeter=0;" edge="1" parent="WIyWlLk6GJQsqaUBKTNV-1" source="r4iXXmLtCV7hjsTs2Yz--330" target="r4iXXmLtCV7hjsTs2Yz--204">
          <mxGeometry width="50" height="50" relative="1" as="geometry">
            <mxPoint x="1261" y="1930" as="sourcePoint" />
            <mxPoint x="1329" y="1884" as="targetPoint" />
          </mxGeometry>
        </mxCell>
        <mxCell id="r4iXXmLtCV7hjsTs2Yz--334" value="" style="endArrow=none;html=1;rounded=0;exitX=0.5;exitY=1.042;exitDx=0;exitDy=0;exitPerimeter=0;entryX=0.533;entryY=-0.292;entryDx=0;entryDy=0;entryPerimeter=0;" edge="1" parent="WIyWlLk6GJQsqaUBKTNV-1" source="r4iXXmLtCV7hjsTs2Yz--213" target="r4iXXmLtCV7hjsTs2Yz--204">
          <mxGeometry width="50" height="50" relative="1" as="geometry">
            <mxPoint x="1346" y="1846" as="sourcePoint" />
            <mxPoint x="1429" y="1750" as="targetPoint" />
          </mxGeometry>
        </mxCell>
        <mxCell id="r4iXXmLtCV7hjsTs2Yz--335" value="A.CPF = D.CPF_Supervisor" style="text;html=1;align=center;verticalAlign=middle;resizable=0;points=[];autosize=1;strokeColor=none;fillColor=none;fontSize=16;" vertex="1" parent="WIyWlLk6GJQsqaUBKTNV-1">
          <mxGeometry x="-708.5" y="3090" width="220" height="30" as="geometry" />
        </mxCell>
        <mxCell id="r4iXXmLtCV7hjsTs2Yz--336" style="rounded=0;orthogonalLoop=1;jettySize=auto;html=1;exitX=1;exitY=0;exitDx=0;exitDy=0;entryX=0.406;entryY=1.189;entryDx=0;entryDy=0;entryPerimeter=0;endArrow=none;endFill=0;" edge="1" parent="WIyWlLk6GJQsqaUBKTNV-1" source="r4iXXmLtCV7hjsTs2Yz--226" target="r4iXXmLtCV7hjsTs2Yz--335">
          <mxGeometry relative="1" as="geometry">
            <mxPoint x="217.5" y="3160" as="sourcePoint" />
            <mxPoint x="245.5" y="3121" as="targetPoint" />
          </mxGeometry>
        </mxCell>
        <mxCell id="r4iXXmLtCV7hjsTs2Yz--337" style="rounded=0;orthogonalLoop=1;jettySize=auto;html=1;exitX=0;exitY=0;exitDx=0;exitDy=0;entryX=0.533;entryY=1.322;entryDx=0;entryDy=0;entryPerimeter=0;endArrow=none;endFill=0;" edge="1" parent="WIyWlLk6GJQsqaUBKTNV-1" source="r4iXXmLtCV7hjsTs2Yz--229" target="r4iXXmLtCV7hjsTs2Yz--335">
          <mxGeometry relative="1" as="geometry">
            <mxPoint x="-655.5" y="3182" as="sourcePoint" />
            <mxPoint x="-609.5" y="3136" as="targetPoint" />
          </mxGeometry>
        </mxCell>
        <mxCell id="r4iXXmLtCV7hjsTs2Yz--338" value="&lt;span lang=&quot;en&quot; class=&quot;BxUVEf ILfuVd&quot;&gt;&lt;span class=&quot;hgKElc&quot;&gt;σ C.ValorPagar &amp;gt; 50&lt;b&gt;&lt;br&gt;&lt;/b&gt;&lt;/span&gt;&lt;/span&gt;" style="text;html=1;align=center;verticalAlign=middle;resizable=0;points=[];autosize=1;strokeColor=none;fillColor=none;fontSize=16;" vertex="1" parent="WIyWlLk6GJQsqaUBKTNV-1">
          <mxGeometry x="-418.5" y="3170" width="170" height="30" as="geometry" />
        </mxCell>
        <mxCell id="r4iXXmLtCV7hjsTs2Yz--339" value="&lt;span lang=&quot;en&quot; class=&quot;BxUVEf ILfuVd&quot;&gt;&lt;span class=&quot;hgKElc&quot;&gt;σ B.Sexo = &quot;M&quot;&lt;b&gt;&lt;br&gt;&lt;/b&gt;&lt;/span&gt;&lt;/span&gt;" style="text;html=1;align=center;verticalAlign=middle;resizable=0;points=[];autosize=1;strokeColor=none;fillColor=none;fontSize=16;" vertex="1" parent="WIyWlLk6GJQsqaUBKTNV-1">
          <mxGeometry x="-236.5" y="3170" width="130" height="30" as="geometry" />
        </mxCell>
        <mxCell id="r4iXXmLtCV7hjsTs2Yz--340" style="rounded=0;orthogonalLoop=1;jettySize=auto;html=1;exitX=0.5;exitY=0;exitDx=0;exitDy=0;entryX=0.498;entryY=1.011;entryDx=0;entryDy=0;entryPerimeter=0;endArrow=none;endFill=0;" edge="1" parent="WIyWlLk6GJQsqaUBKTNV-1" source="r4iXXmLtCV7hjsTs2Yz--228" target="r4iXXmLtCV7hjsTs2Yz--338">
          <mxGeometry relative="1" as="geometry">
            <mxPoint x="-551.5" y="3182" as="sourcePoint" />
            <mxPoint x="-581.5" y="3140" as="targetPoint" />
          </mxGeometry>
        </mxCell>
        <mxCell id="r4iXXmLtCV7hjsTs2Yz--341" style="rounded=0;orthogonalLoop=1;jettySize=auto;html=1;exitX=0.5;exitY=0;exitDx=0;exitDy=0;entryX=0.482;entryY=1.056;entryDx=0;entryDy=0;entryPerimeter=0;endArrow=none;endFill=0;" edge="1" parent="WIyWlLk6GJQsqaUBKTNV-1" source="r4iXXmLtCV7hjsTs2Yz--227" target="r4iXXmLtCV7hjsTs2Yz--339">
          <mxGeometry relative="1" as="geometry">
            <mxPoint x="-323.5" y="3250" as="sourcePoint" />
            <mxPoint x="-323.5" y="3210" as="targetPoint" />
          </mxGeometry>
        </mxCell>
        <mxCell id="r4iXXmLtCV7hjsTs2Yz--342" style="rounded=0;orthogonalLoop=1;jettySize=auto;html=1;exitX=0.482;exitY=-0.056;exitDx=0;exitDy=0;endArrow=none;endFill=0;exitPerimeter=0;" edge="1" parent="WIyWlLk6GJQsqaUBKTNV-1" source="r4iXXmLtCV7hjsTs2Yz--338">
          <mxGeometry relative="1" as="geometry">
            <mxPoint x="-551.5" y="3182" as="sourcePoint" />
            <mxPoint x="-253.5" y="3120" as="targetPoint" />
          </mxGeometry>
        </mxCell>
        <mxCell id="r4iXXmLtCV7hjsTs2Yz--343" style="rounded=0;orthogonalLoop=1;jettySize=auto;html=1;exitX=0.492;exitY=-0.056;exitDx=0;exitDy=0;endArrow=none;endFill=0;exitPerimeter=0;" edge="1" parent="WIyWlLk6GJQsqaUBKTNV-1" source="r4iXXmLtCV7hjsTs2Yz--339">
          <mxGeometry relative="1" as="geometry">
            <mxPoint x="-326.5" y="3178" as="sourcePoint" />
            <mxPoint x="-223.5" y="3120" as="targetPoint" />
          </mxGeometry>
        </mxCell>
        <mxCell id="r4iXXmLtCV7hjsTs2Yz--344" value="⋈ B.CPF = C.CPF_Cliente" style="text;html=1;align=center;verticalAlign=middle;resizable=0;points=[];autosize=1;strokeColor=none;fillColor=none;fontSize=16;" vertex="1" parent="WIyWlLk6GJQsqaUBKTNV-1">
          <mxGeometry x="-343.5" y="3088" width="210" height="30" as="geometry" />
        </mxCell>
        <mxCell id="r4iXXmLtCV7hjsTs2Yz--345" value="⋈ A.CPF = B.CPF" style="text;html=1;align=center;verticalAlign=middle;resizable=0;points=[];autosize=1;strokeColor=none;fillColor=none;fontSize=16;" vertex="1" parent="WIyWlLk6GJQsqaUBKTNV-1">
          <mxGeometry x="-478.5" y="3010" width="150" height="30" as="geometry" />
        </mxCell>
        <mxCell id="r4iXXmLtCV7hjsTs2Yz--346" style="rounded=0;orthogonalLoop=1;jettySize=auto;html=1;exitX=0.527;exitY=-0.367;exitDx=0;exitDy=0;endArrow=none;endFill=0;exitPerimeter=0;" edge="1" parent="WIyWlLk6GJQsqaUBKTNV-1" source="r4iXXmLtCV7hjsTs2Yz--335">
          <mxGeometry relative="1" as="geometry">
            <mxPoint x="-551.5" y="3182" as="sourcePoint" />
            <mxPoint x="-413.5" y="3040" as="targetPoint" />
          </mxGeometry>
        </mxCell>
        <mxCell id="r4iXXmLtCV7hjsTs2Yz--347" style="rounded=0;orthogonalLoop=1;jettySize=auto;html=1;exitX=0.51;exitY=0.011;exitDx=0;exitDy=0;endArrow=none;endFill=0;exitPerimeter=0;" edge="1" parent="WIyWlLk6GJQsqaUBKTNV-1" source="r4iXXmLtCV7hjsTs2Yz--344">
          <mxGeometry relative="1" as="geometry">
            <mxPoint x="-582.5" y="3089" as="sourcePoint" />
            <mxPoint x="-383.5" y="3040" as="targetPoint" />
          </mxGeometry>
        </mxCell>
        <mxCell id="r4iXXmLtCV7hjsTs2Yz--348" style="rounded=0;orthogonalLoop=1;jettySize=auto;html=1;exitX=0.502;exitY=-0.1;exitDx=0;exitDy=0;endArrow=none;endFill=0;exitPerimeter=0;" edge="1" parent="WIyWlLk6GJQsqaUBKTNV-1" source="r4iXXmLtCV7hjsTs2Yz--345">
          <mxGeometry relative="1" as="geometry">
            <mxPoint x="-226.5" y="3098" as="sourcePoint" />
            <mxPoint x="-403.5" y="2970" as="targetPoint" />
          </mxGeometry>
        </mxCell>
        <mxCell id="r4iXXmLtCV7hjsTs2Yz--350" style="rounded=0;orthogonalLoop=1;jettySize=auto;html=1;exitX=1;exitY=0;exitDx=0;exitDy=0;entryX=0.347;entryY=1.1;entryDx=0;entryDy=0;entryPerimeter=0;endArrow=none;endFill=0;" edge="1" parent="WIyWlLk6GJQsqaUBKTNV-1" source="r4iXXmLtCV7hjsTs2Yz--236">
          <mxGeometry relative="1" as="geometry">
            <mxPoint x="203" y="3320" as="sourcePoint" />
            <mxPoint x="237" y="3281" as="targetPoint" />
          </mxGeometry>
        </mxCell>
        <mxCell id="r4iXXmLtCV7hjsTs2Yz--351" style="rounded=0;orthogonalLoop=1;jettySize=auto;html=1;exitX=0;exitY=0;exitDx=0;exitDy=0;endArrow=none;endFill=0;" edge="1" parent="WIyWlLk6GJQsqaUBKTNV-1" source="r4iXXmLtCV7hjsTs2Yz--254">
          <mxGeometry relative="1" as="geometry">
            <mxPoint x="201" y="3342" as="sourcePoint" />
            <mxPoint x="260" y="3280" as="targetPoint" />
          </mxGeometry>
        </mxCell>
        <mxCell id="r4iXXmLtCV7hjsTs2Yz--352" value="⋈ B.CodAtor = C.Codigo" style="text;html=1;align=center;verticalAlign=middle;resizable=0;points=[];autosize=1;strokeColor=none;fillColor=none;fontSize=16;" vertex="1" parent="WIyWlLk6GJQsqaUBKTNV-1">
          <mxGeometry x="143" y="3248" width="200" height="30" as="geometry" />
        </mxCell>
        <mxCell id="r4iXXmLtCV7hjsTs2Yz--353" style="rounded=0;orthogonalLoop=1;jettySize=auto;html=1;exitX=0.5;exitY=0;exitDx=0;exitDy=0;endArrow=none;endFill=0;entryX=0.462;entryY=1.3;entryDx=0;entryDy=0;entryPerimeter=0;" edge="1" parent="WIyWlLk6GJQsqaUBKTNV-1" source="r4iXXmLtCV7hjsTs2Yz--235" target="r4iXXmLtCV7hjsTs2Yz--255">
          <mxGeometry relative="1" as="geometry">
            <mxPoint x="302" y="3342" as="sourcePoint" />
            <mxPoint x="270" y="3290" as="targetPoint" />
          </mxGeometry>
        </mxCell>
        <mxCell id="r4iXXmLtCV7hjsTs2Yz--354" style="rounded=0;orthogonalLoop=1;jettySize=auto;html=1;exitX=0.53;exitY=-0.078;exitDx=0;exitDy=0;endArrow=none;endFill=0;exitPerimeter=0;" edge="1" parent="WIyWlLk6GJQsqaUBKTNV-1" source="r4iXXmLtCV7hjsTs2Yz--352">
          <mxGeometry relative="1" as="geometry">
            <mxPoint x="302" y="3342" as="sourcePoint" />
            <mxPoint x="320" y="3200" as="targetPoint" />
          </mxGeometry>
        </mxCell>
        <mxCell id="r4iXXmLtCV7hjsTs2Yz--355" style="rounded=0;orthogonalLoop=1;jettySize=auto;html=1;exitX=0.488;exitY=-0.078;exitDx=0;exitDy=0;endArrow=none;endFill=0;exitPerimeter=0;" edge="1" parent="WIyWlLk6GJQsqaUBKTNV-1" source="r4iXXmLtCV7hjsTs2Yz--255">
          <mxGeometry relative="1" as="geometry">
            <mxPoint x="259" y="3256" as="sourcePoint" />
            <mxPoint x="360" y="3200" as="targetPoint" />
          </mxGeometry>
        </mxCell>
        <mxCell id="r4iXXmLtCV7hjsTs2Yz--357" style="rounded=0;orthogonalLoop=1;jettySize=auto;html=1;exitX=0.5;exitY=0;exitDx=0;exitDy=0;endArrow=none;endFill=0;entryX=0.496;entryY=1.322;entryDx=0;entryDy=0;entryPerimeter=0;" edge="1" parent="WIyWlLk6GJQsqaUBKTNV-1" source="r4iXXmLtCV7hjsTs2Yz--237" target="r4iXXmLtCV7hjsTs2Yz--261">
          <mxGeometry relative="1" as="geometry">
            <mxPoint x="492" y="3330" as="sourcePoint" />
            <mxPoint x="492" y="3297" as="targetPoint" />
          </mxGeometry>
        </mxCell>
        <mxCell id="r4iXXmLtCV7hjsTs2Yz--358" style="rounded=0;orthogonalLoop=1;jettySize=auto;html=1;exitX=0.544;exitY=-0.144;exitDx=0;exitDy=0;endArrow=none;endFill=0;exitPerimeter=0;" edge="1" parent="WIyWlLk6GJQsqaUBKTNV-1" source="r4iXXmLtCV7hjsTs2Yz--231">
          <mxGeometry relative="1" as="geometry">
            <mxPoint x="498" y="3256" as="sourcePoint" />
            <mxPoint x="500" y="3120" as="targetPoint" />
          </mxGeometry>
        </mxCell>
        <mxCell id="r4iXXmLtCV7hjsTs2Yz--359" style="rounded=0;orthogonalLoop=1;jettySize=auto;html=1;exitX=0.504;exitY=-0.322;exitDx=0;exitDy=0;endArrow=none;endFill=0;exitPerimeter=0;entryX=0.593;entryY=1.1;entryDx=0;entryDy=0;entryPerimeter=0;" edge="1" parent="WIyWlLk6GJQsqaUBKTNV-1" source="r4iXXmLtCV7hjsTs2Yz--261" target="r4iXXmLtCV7hjsTs2Yz--257">
          <mxGeometry relative="1" as="geometry">
            <mxPoint x="344" y="3176" as="sourcePoint" />
            <mxPoint x="510" y="3130" as="targetPoint" />
          </mxGeometry>
        </mxCell>
        <mxCell id="r4iXXmLtCV7hjsTs2Yz--360" style="rounded=0;orthogonalLoop=1;jettySize=auto;html=1;exitX=0.542;exitY=-0.189;exitDx=0;exitDy=0;endArrow=none;endFill=0;exitPerimeter=0;entryX=0.489;entryY=1.144;entryDx=0;entryDy=0;entryPerimeter=0;" edge="1" parent="WIyWlLk6GJQsqaUBKTNV-1" source="r4iXXmLtCV7hjsTs2Yz--257" target="r4iXXmLtCV7hjsTs2Yz--262">
          <mxGeometry relative="1" as="geometry">
            <mxPoint x="686" y="3210" as="sourcePoint" />
            <mxPoint x="539" y="3133" as="targetPoint" />
          </mxGeometry>
        </mxCell>
        <mxCell id="r4iXXmLtCV7hjsTs2Yz--361" style="rounded=0;orthogonalLoop=1;jettySize=auto;html=1;exitX=0.5;exitY=0;exitDx=0;exitDy=0;endArrow=none;endFill=0;entryX=0.504;entryY=1.144;entryDx=0;entryDy=0;entryPerimeter=0;" edge="1" parent="WIyWlLk6GJQsqaUBKTNV-1" source="r4iXXmLtCV7hjsTs2Yz--270" target="r4iXXmLtCV7hjsTs2Yz--279">
          <mxGeometry relative="1" as="geometry">
            <mxPoint x="705" y="3209" as="sourcePoint" />
            <mxPoint x="704" y="3181" as="targetPoint" />
          </mxGeometry>
        </mxCell>
        <mxCell id="r4iXXmLtCV7hjsTs2Yz--362" style="rounded=0;orthogonalLoop=1;jettySize=auto;html=1;exitX=0.5;exitY=0;exitDx=0;exitDy=0;endArrow=none;endFill=0;entryX=0.475;entryY=1.1;entryDx=0;entryDy=0;entryPerimeter=0;" edge="1" parent="WIyWlLk6GJQsqaUBKTNV-1" source="r4iXXmLtCV7hjsTs2Yz--273" target="r4iXXmLtCV7hjsTs2Yz--269">
          <mxGeometry relative="1" as="geometry">
            <mxPoint x="1068" y="3288" as="sourcePoint" />
            <mxPoint x="1069" y="3242" as="targetPoint" />
          </mxGeometry>
        </mxCell>
        <mxCell id="r4iXXmLtCV7hjsTs2Yz--363" style="rounded=0;orthogonalLoop=1;jettySize=auto;html=1;exitX=0.521;exitY=-0.056;exitDx=0;exitDy=0;endArrow=none;endFill=0;entryX=0.483;entryY=1.389;entryDx=0;entryDy=0;entryPerimeter=0;exitPerimeter=0;" edge="1" parent="WIyWlLk6GJQsqaUBKTNV-1" source="r4iXXmLtCV7hjsTs2Yz--279" target="r4iXXmLtCV7hjsTs2Yz--280">
          <mxGeometry relative="1" as="geometry">
            <mxPoint x="1030" y="3289" as="sourcePoint" />
            <mxPoint x="1031" y="3243" as="targetPoint" />
          </mxGeometry>
        </mxCell>
        <mxCell id="r4iXXmLtCV7hjsTs2Yz--364" style="rounded=0;orthogonalLoop=1;jettySize=auto;html=1;exitX=0.538;exitY=0.022;exitDx=0;exitDy=0;endArrow=none;endFill=0;exitPerimeter=0;" edge="1" parent="WIyWlLk6GJQsqaUBKTNV-1" source="r4iXXmLtCV7hjsTs2Yz--278">
          <mxGeometry relative="1" as="geometry">
            <mxPoint x="1035" y="3207" as="sourcePoint" />
            <mxPoint x="1180" y="3161" as="targetPoint" />
          </mxGeometry>
        </mxCell>
        <mxCell id="r4iXXmLtCV7hjsTs2Yz--365" style="rounded=0;orthogonalLoop=1;jettySize=auto;html=1;exitX=0.528;exitY=0.011;exitDx=0;exitDy=0;endArrow=none;endFill=0;exitPerimeter=0;entryX=0.42;entryY=1.344;entryDx=0;entryDy=0;entryPerimeter=0;" edge="1" parent="WIyWlLk6GJQsqaUBKTNV-1" source="r4iXXmLtCV7hjsTs2Yz--280" target="r4iXXmLtCV7hjsTs2Yz--266">
          <mxGeometry relative="1" as="geometry">
            <mxPoint x="1322" y="3209" as="sourcePoint" />
            <mxPoint x="1190" y="3171" as="targetPoint" />
          </mxGeometry>
        </mxCell>
        <mxCell id="r4iXXmLtCV7hjsTs2Yz--366" style="rounded=0;orthogonalLoop=1;jettySize=auto;html=1;exitX=0.5;exitY=0;exitDx=0;exitDy=0;endArrow=none;endFill=0;" edge="1" parent="WIyWlLk6GJQsqaUBKTNV-1" source="r4iXXmLtCV7hjsTs2Yz--271">
          <mxGeometry relative="1" as="geometry">
            <mxPoint x="1158" y="3131" as="sourcePoint" />
            <mxPoint x="1380" y="3041" as="targetPoint" />
          </mxGeometry>
        </mxCell>
        <mxCell id="r4iXXmLtCV7hjsTs2Yz--367" style="rounded=0;orthogonalLoop=1;jettySize=auto;html=1;exitX=0.527;exitY=0.056;exitDx=0;exitDy=0;endArrow=none;endFill=0;exitPerimeter=0;entryX=0.51;entryY=1.389;entryDx=0;entryDy=0;entryPerimeter=0;" edge="1" parent="WIyWlLk6GJQsqaUBKTNV-1" source="r4iXXmLtCV7hjsTs2Yz--266" target="r4iXXmLtCV7hjsTs2Yz--275">
          <mxGeometry relative="1" as="geometry">
            <mxPoint x="1550" y="3208" as="sourcePoint" />
            <mxPoint x="1390" y="3051" as="targetPoint" />
          </mxGeometry>
        </mxCell>
        <mxCell id="r4iXXmLtCV7hjsTs2Yz--369" value="Consulta Reescrita" style="text;html=1;align=center;verticalAlign=middle;resizable=0;points=[];autosize=1;strokeColor=none;fillColor=none;fontSize=23;fontStyle=4" vertex="1" parent="WIyWlLk6GJQsqaUBKTNV-1">
          <mxGeometry x="-800" y="80" width="220" height="40" as="geometry" />
        </mxCell>
        <mxCell id="r4iXXmLtCV7hjsTs2Yz--370" value="SELECT A.Nome, C.Nome&lt;br&gt;&lt;div&gt;FROM (&lt;/div&gt;&lt;div&gt;&lt;span style=&quot;white-space: pre;&quot;&gt;&#x9;&lt;/span&gt;(B INNER JOIN C ON B.CodAtor = C.Codigo) AS BC&lt;/div&gt;&lt;div&gt;INNER JOIN&lt;/div&gt;&lt;div&gt;&lt;span style=&quot;white-space: pre;&quot;&gt;&#x9;&lt;/span&gt;(SELECT * FROM A WHERE A.Genero = &quot;Aventura&quot;) AS A&lt;/div&gt;ON A.Codigo = B.CodFilme) AS ABC&lt;br&gt;INNER JOIN (SELECT * FROM D WHERE D.PrecoDiaria &amp;gt; 10) AS D&lt;br&gt;ON A.Codigo = D.CodFilme" style="text;whiteSpace=wrap;html=1;fontSize=22;verticalAlign=middle;spacingTop=0;spacing=0;strokeColor=none;rounded=0;" vertex="1" parent="WIyWlLk6GJQsqaUBKTNV-1">
          <mxGeometry x="76.5" y="160" width="723.5" height="350" as="geometry" />
        </mxCell>
        <mxCell id="r4iXXmLtCV7hjsTs2Yz--372" value="SELECT A.Nome, C.Nome&lt;br&gt;FROM B INNER JOIN (&lt;br&gt;&lt;span style=&quot;white-space: pre;&quot;&gt;&#x9;&lt;/span&gt;(SELECT * FROM A WHERE A.CPF_Supervisor IS NULL) AS A&lt;br&gt;INNER JOIN&lt;br&gt;&lt;span style=&quot;white-space: pre;&quot;&gt;&#x9;&lt;/span&gt;(SELECT * FROM C WHERE C.ValorPagar &amp;gt; 100&lt;br&gt;&lt;span style=&quot;white-space: pre;&quot;&gt;&#x9;&lt;/span&gt;AND C.CPF_Cliente = C.CPF_Funcionario) AS C&lt;br&gt;&lt;span style=&quot;white-space: pre;&quot;&gt;&#x9;&lt;/span&gt;ON A.CPF = C.CPF_Funcionario)&lt;br&gt;) AS AC ON A.CPF = B.CPF" style="text;whiteSpace=wrap;html=1;fontSize=22;verticalAlign=middle;spacingTop=0;spacing=0;strokeColor=none;rounded=0;" vertex="1" parent="WIyWlLk6GJQsqaUBKTNV-1">
          <mxGeometry x="920" y="160" width="700" height="350" as="geometry" />
        </mxCell>
        <mxCell id="r4iXXmLtCV7hjsTs2Yz--375" value="Plano de Execução da Consulta Otimizada" style="text;whiteSpace=wrap;html=1;fontSize=22;fontStyle=4" vertex="1" parent="WIyWlLk6GJQsqaUBKTNV-1">
          <mxGeometry x="-800" y="2440" width="460" height="50" as="geometry" />
        </mxCell>
        <mxCell id="r4iXXmLtCV7hjsTs2Yz--376" value="1. Pesquisa Linear; percorre a procura de NULLs, apesar de ser&lt;br&gt;&lt;div&gt;atributo indexado&lt;/div&gt;&lt;div&gt;&lt;br&gt;&lt;/div&gt;&lt;div&gt;2. Pesquisa Linear: atributo não indexado de C&lt;/div&gt;&lt;div&gt;&lt;br&gt;&lt;/div&gt;&lt;div&gt;3. Pesquisa Linear: percorre C para procurar igualdade&lt;/div&gt;&lt;div&gt;&lt;br&gt;&lt;/div&gt;4. Junção em Loop Único: percorr earquivo C e pesquisa em&lt;br&gt;&lt;div&gt;índice de A&lt;/div&gt;&lt;div&gt;&lt;br&gt;&lt;/div&gt;5. Junção de Loop Aninhado: É realizada a varredura em&lt;br&gt;ambos A e B" style="text;whiteSpace=wrap;html=1;fontSize=22;" vertex="1" parent="WIyWlLk6GJQsqaUBKTNV-1">
          <mxGeometry x="850" y="2490" width="787" height="330" as="geometry" />
        </mxCell>
        <mxCell id="r4iXXmLtCV7hjsTs2Yz--377" style="rounded=0;orthogonalLoop=1;jettySize=auto;html=1;exitX=0.5;exitY=0;exitDx=0;exitDy=0;endArrow=none;endFill=0;entryX=0.475;entryY=1.1;entryDx=0;entryDy=0;entryPerimeter=0;" edge="1" parent="WIyWlLk6GJQsqaUBKTNV-1">
          <mxGeometry relative="1" as="geometry">
            <mxPoint x="1298.52" y="3258" as="sourcePoint" />
            <mxPoint x="1298.52" y="3229" as="targetPoint" />
          </mxGeometry>
        </mxCell>
        <mxCell id="r4iXXmLtCV7hjsTs2Yz--378" value="SELECT A.Nome, C.Nome&lt;br&gt;FROM C INNER JOIN (&lt;br&gt;&lt;span style=&quot;white-space: pre;&quot;&gt;&#x9;&lt;/span&gt;A INNER JOIN B ON A.CPF = B.CPF&lt;br&gt;) AS AB ON A.CPF = C.CPF_Funcionario&lt;br&gt;&lt;div&gt;WHERE&lt;/div&gt;&lt;div&gt;&lt;span style=&quot;white-space: pre;&quot;&gt;&#x9;&lt;/span&gt;A.CPF_Supervisor IS NULL&lt;/div&gt;&lt;div&gt;AND&lt;/div&gt;&lt;div&gt;&lt;span style=&quot;white-space: pre;&quot;&gt;&#x9;&lt;/span&gt;C.CPF_Cliente = C.CPF_Funcionario&lt;/div&gt;&lt;div&gt;AND&lt;/div&gt;&lt;div&gt;&lt;span style=&quot;white-space: pre;&quot;&gt;&#x9;&lt;/span&gt;C.ValorPagar &amp;gt; 100&lt;/div&gt;" style="text;whiteSpace=wrap;html=1;fontSize=22;" vertex="1" parent="WIyWlLk6GJQsqaUBKTNV-1">
          <mxGeometry x="866.5" y="1315.5" width="693.5" height="284.5" as="geometry" />
        </mxCell>
        <mxCell id="r4iXXmLtCV7hjsTs2Yz--379" value="Consulta em Ordem Reversa" style="text;html=1;align=center;verticalAlign=middle;resizable=0;points=[];autosize=1;strokeColor=none;fillColor=none;fontSize=22;fontStyle=4" vertex="1" parent="WIyWlLk6GJQsqaUBKTNV-1">
          <mxGeometry x="-793.5" y="1260" width="310" height="40" as="geometry" />
        </mxCell>
      </root>
    </mxGraphModel>
  </diagram>
</mxfile>
